<svg xmlns="http://www.w3.org/2000/svg" xmlns:xlink="http://www.w3.org/1999/xlink" width="455" zoomAndPan="magnify" viewBox="0 0 341.25 209.999996" height="280" preserveAspectRatio="xMidYMid meet" version="1.0"><defs><clipPath id="8f1b140c54"><path d="M 0 0.230469 L 340 0.230469 L 340 209 L 0 209 Z M 0 0.230469 " clip-rule="nonzero"/></clipPath><clipPath id="5a10ceaccf"><path d="M 150 117 L 160 117 L 160 133.289062 L 150 133.289062 Z M 150 117 " clip-rule="nonzero"/></clipPath><clipPath id="e3daa515cd"><path d="M 198 117 L 219 117 L 219 133.289062 L 198 133.289062 Z M 198 117 " clip-rule="nonzero"/></clipPath><clipPath id="fe3f5babb5"><path d="M 222 117 L 240 117 L 240 133.289062 L 222 133.289062 Z M 222 117 " clip-rule="nonzero"/></clipPath><clipPath id="bdc055a2ee"><path d="M 240 117 L 266 117 L 266 133.289062 L 240 133.289062 Z M 240 117 " clip-rule="nonzero"/></clipPath><clipPath id="2c0151a8e9"><path d="M 164 21.78125 L 185 21.78125 L 185 61 L 164 61 Z M 164 21.78125 " clip-rule="nonzero"/></clipPath></defs><g clip-path="url(#8f1b140c54)"><path fill="#093a56" d="M 160.171875 23.625 C 160.355469 21.03125 160.433594 18.515625 161.867188 16.171875 C 162.761719 14.71875 163.78125 13.824219 165.507812 13.839844 C 165.816406 13.839844 166.125 13.808594 166.433594 13.824219 C 170.800781 13.980469 175.0625 13.160156 179.335938 12.453125 C 180.785156 12.203125 182.3125 12.128906 183.75 12.527344 C 184.8125 12.820312 184.890625 12.421875 184.875 11.601562 C 184.859375 10.644531 184.921875 9.6875 186.09375 9.410156 C 187.25 9.148438 188.101562 9.597656 188.824219 10.507812 C 189.566406 11.433594 189.765625 12.746094 191.140625 13.253906 C 192.746094 13.855469 193.378906 13.671875 193.824219 12.050781 C 194.425781 9.875 195.414062 9.363281 197.449219 10.304688 C 198.066406 10.601562 198.175781 10.382812 198.347656 9.90625 C 198.976562 8.207031 200.226562 7.683594 201.988281 7.792969 C 203.46875 7.882812 205.011719 6.679688 206.429688 7.808594 C 208.855469 9.71875 211.0625 8.023438 213.265625 7.421875 C 215.550781 6.789062 217.1875 7.46875 217.695312 9.828125 C 217.898438 10.722656 218.328125 11.246094 219.132812 11.570312 C 221.058594 12.359375 222.542969 13.714844 223.914062 15.230469 C 225.273438 16.726562 225.65625 18.421875 224.5 20.121094 C 223.40625 21.726562 223.652344 23.5625 223.28125 25.257812 C 223.066406 26.277344 224.285156 26.816406 225.210938 27.1875 C 229.363281 28.792969 229.871094 31.847656 229.515625 34.808594 C 229.269531 36.769531 227.664062 38.207031 226.691406 39.871094 C 225.566406 41.800781 225.410156 42.664062 227 44.222656 C 228.683594 45.859375 228.4375 48.019531 228.804688 50.007812 C 228.945312 50.75 228.960938 51.523438 229.59375 52 C 232.214844 53.992188 232.925781 57.078125 233.929688 59.929688 C 234.421875 61.335938 235.023438 61.351562 236.074219 60.902344 C 236.582031 60.6875 237.136719 60.488281 237.539062 60.132812 C 239.097656 58.757812 240.71875 58.773438 242.507812 59.621094 C 243.25 59.976562 244.035156 60.363281 244.929688 59.839844 C 245.238281 59.667969 245.949219 59.683594 246.148438 59.902344 C 247.398438 61.273438 248.957031 61.890625 250.734375 62.324219 C 251.691406 62.554688 252.367188 63.589844 252.476562 64.746094 C 252.785156 67.941406 252.015625 71.148438 249.882812 73.25 C 248.527344 74.574219 247.800781 76.011719 247.308594 77.507812 C 246.796875 79.019531 246.613281 80.886719 247.492188 82.476562 C 248.1875 83.742188 248.417969 84.882812 247.324219 86.007812 C 246.84375 86.503906 246.921875 86.796875 247.429688 87.335938 C 249.296875 89.359375 249.222656 90.050781 247.246094 92.089844 C 246.90625 92.445312 246.550781 92.800781 246.273438 93.199219 C 244.761719 95.269531 245.734375 98.230469 248.15625 99.125 C 249.234375 99.527344 250.269531 100.003906 251.089844 100.945312 C 251.984375 101.996094 253.234375 102.535156 254.636719 102.722656 C 256.628906 103 257.199219 103.894531 256.488281 105.761719 C 255.980469 107.117188 256.921875 108.925781 255.175781 109.957031 C 255.007812 110.066406 255.671875 110.667969 256.132812 110.867188 C 257.089844 111.300781 257.707031 111.933594 257.785156 113.089844 C 257.96875 115.992188 258.433594 116.421875 261.070312 115.667969 C 262.90625 115.128906 264.480469 114.820312 266.316406 115.851562 C 267.289062 116.390625 268.617188 116.128906 269.757812 115.28125 C 271.085938 114.277344 272.550781 113.183594 274.417969 114.371094 C 275.019531 114.757812 275.730469 114.523438 276.269531 113.96875 C 276.839844 113.398438 276.363281 112.921875 276.101562 112.488281 C 275.175781 111.023438 275.40625 109.972656 277.027344 109.246094 C 277.707031 108.9375 278.167969 108.429688 278.308594 107.582031 C 278.707031 104.988281 281.671875 103.878906 283.753906 105.574219 C 284.867188 106.484375 286.285156 106.378906 287.457031 107.042969 C 287.953125 107.320312 288.492188 106.871094 288.894531 106.441406 C 289.820312 105.4375 290.914062 105.4375 292.101562 105.914062 C 294.371094 106.839844 295.050781 106.253906 296.964844 104.925781 C 299.617188 103.089844 302.316406 101.117188 305.652344 100.40625 C 308.027344 99.898438 310.496094 99.835938 312.71875 98.570312 C 314.246094 97.691406 317.101562 98.800781 318.089844 100.730469 C 319.105469 102.722656 320.878906 104.015625 322.300781 105.574219 C 322.886719 106.222656 324.769531 106.59375 326.15625 106.207031 C 328.425781 105.574219 330.664062 104.867188 333.085938 105.542969 C 333.65625 105.699219 334.320312 105.605469 334.9375 105.558594 C 337.46875 105.421875 339.566406 107.132812 339.9375 109.648438 C 340.09375 110.714844 339.875 111.777344 338.859375 112.164062 C 337.59375 112.628906 337.082031 113.554688 336.605469 114.648438 C 335.386719 117.410156 332.609375 118.027344 330.230469 118.242188 C 326.359375 118.582031 322.609375 119.183594 319.074219 120.742188 C 317.609375 121.390625 316.160156 122.472656 316.265625 124.460938 C 316.375 126.390625 316.082031 128.089844 314.539062 129.476562 C 313.519531 130.402344 314.492188 131.097656 315.234375 131.421875 C 316.4375 131.945312 317.191406 132.917969 317.980469 133.828125 C 319.199219 135.234375 318.519531 137.222656 316.667969 137.5 C 315 137.75 313.257812 138.042969 311.589844 137.175781 C 309.785156 136.25 308.859375 137.734375 308.210938 138.859375 C 306.929688 141.019531 305.265625 142.378906 302.796875 142.871094 C 301.082031 143.210938 300.3125 145.230469 298.460938 145.355469 C 296.839844 145.464844 295.25 145.585938 293.816406 146.480469 C 293.351562 146.777344 292.378906 146.574219 292.8125 147.546875 C 293.136719 148.273438 293.738281 148.347656 294.480469 147.933594 C 295.558594 147.316406 296.578125 147.6875 297.625 148.164062 C 299.417969 148.980469 300.28125 150.230469 300.003906 152.253906 C 299.878906 153.164062 300.035156 154.027344 300.40625 154.9375 C 300.945312 156.28125 300.960938 157.746094 299.773438 158.886719 C 299.125 159.503906 298.351562 159.953125 297.457031 159.320312 C 295.945312 158.257812 294.230469 158.269531 292.503906 158.410156 C 290.898438 158.535156 289.695312 157.960938 289.21875 156.359375 C 288.628906 154.382812 286.640625 153.933594 285.265625 153.503906 C 283.722656 153.023438 281.996094 152.5625 280.28125 152.46875 C 279.003906 152.40625 277.753906 152.191406 276.472656 151.929688 C 274.34375 151.480469 272.242188 152.160156 270.421875 153.410156 C 269.773438 153.859375 269.25 154.550781 268.402344 154.597656 C 266.226562 154.722656 265.546875 156.402344 265.222656 158.023438 C 264.867188 159.800781 264.066406 160.308594 262.351562 160.710938 C 260.316406 161.1875 258.261719 161.21875 256.242188 161.480469 C 250.917969 162.160156 246.722656 165.277344 242.136719 167.589844 C 240.59375 168.363281 239.050781 169.117188 237.523438 169.90625 C 235.59375 170.878906 233.914062 172.019531 233.929688 174.550781 C 233.929688 175.460938 233.171875 176.234375 232.402344 176.496094 C 229.300781 177.589844 227.324219 180.289062 224.453125 181.773438 C 220.488281 183.808594 216.648438 186.109375 212.898438 188.546875 C 209.964844 190.445312 207.386719 192.851562 204.457031 194.75 C 202.359375 196.105469 200.984375 197.726562 200.460938 200.179688 C 200.226562 201.308594 199.671875 202.371094 199.210938 203.421875 C 198.699219 204.578125 197.914062 205.457031 196.632812 205.890625 C 195.582031 206.246094 194.71875 206.910156 194.007812 207.835938 C 192.929688 209.269531 191.679688 209.160156 190.769531 207.601562 C 190.445312 207.03125 190.027344 206.675781 189.351562 206.539062 C 187.390625 206.105469 186.464844 204.871094 186.433594 202.851562 C 186.402344 200.90625 185.476562 199.515625 183.515625 199.148438 C 182.328125 198.929688 181.589844 198.097656 180.632812 197.589844 C 179.90625 197.203125 179.226562 196.878906 179.179688 198.191406 C 179.164062 198.46875 178.996094 198.777344 178.839844 199.023438 C 177.265625 201.601562 176.464844 201.847656 173.917969 200.566406 C 171.710938 199.457031 171.140625 197.710938 172.050781 195.335938 C 172.945312 192.992188 172.976562 190.429688 173.703125 188.039062 C 173.933594 187.25 173.039062 186.417969 171.988281 186.726562 C 169.429688 187.449219 166.945312 186.570312 164.507812 186.199219 C 161.867188 185.800781 159.320312 185.753906 156.699219 186.171875 C 153.304688 186.695312 149.878906 187.109375 146.53125 185.785156 C 146.207031 185.644531 145.882812 185.445312 145.621094 185.199219 C 144.601562 184.195312 144.601562 179.671875 145.015625 178.347656 C 145.542969 176.632812 145.929688 175.027344 146.945312 173.425781 C 147.484375 172.574219 145.773438 170.800781 144.800781 169.691406 C 143.875 168.625 143.351562 167.605469 143.503906 166.21875 C 143.613281 165.214844 143.335938 164.519531 142.148438 164.195312 C 140.945312 163.871094 140.035156 162.855469 139.386719 161.835938 C 138.195312 159.953125 136.761719 158.347656 135.109375 156.867188 C 133.429688 155.371094 133.398438 154.320312 134.695312 152.578125 C 135.652344 151.28125 135.621094 149.261719 134.386719 147.609375 C 133.535156 146.46875 132.917969 145.339844 133.042969 143.90625 C 133.058594 143.78125 133.074219 143.613281 132.996094 143.550781 C 130.960938 141.527344 132.425781 139.632812 132.933594 137.515625 C 133.613281 134.722656 132.550781 132.070312 130.882812 129.738281 C 129.371094 127.625 127.425781 126.222656 124.804688 125.667969 C 123.523438 125.402344 122.425781 124.601562 121.964844 123.058594 C 121.410156 121.175781 119.386719 120.082031 117.628906 120.773438 C 115.636719 121.5625 113.632812 121.347656 111.625 121.40625 C 109.945312 121.453125 108.214844 121.949219 106.671875 120.773438 C 106.285156 120.480469 105.714844 120.683594 105.269531 120.929688 C 103.753906 121.777344 101.980469 121.746094 100.59375 121.222656 C 98.125 120.28125 95.839844 120.589844 93.632812 121.5625 C 91.613281 122.457031 90.144531 121.65625 89.453125 120.109375 C 87.910156 116.671875 84.808594 116.191406 81.78125 115.511719 C 78.648438 114.804688 75.609375 114.0625 72.988281 112.039062 C 70.796875 110.34375 68.296875 110.21875 65.78125 111.378906 C 65.195312 111.640625 64.609375 111.824219 63.992188 111.746094 C 60.828125 111.347656 57.570312 111.316406 54.71875 109.542969 C 54.363281 109.324219 53.867188 109.03125 53.527344 109.125 C 50.765625 109.835938 48.683594 108.367188 46.539062 107.074219 C 45.90625 106.6875 45.273438 106.300781 44.59375 106.039062 C 42.957031 105.40625 41.769531 105.882812 40.96875 107.394531 C 39.332031 110.484375 38.886719 110.621094 35.828125 109.078125 C 35.566406 108.9375 35.210938 108.832031 34.949219 108.878906 C 32.035156 109.511719 29.070312 108.984375 26.261719 108.644531 C 23.886719 108.367188 21.726562 108.429688 19.378906 108.617188 C 17.050781 108.800781 14.566406 108.230469 12.191406 107.566406 C 9.9375 106.933594 8.363281 108.554688 6.804688 109.773438 C 5.695312 110.636719 4.707031 111.640625 3.363281 112.179688 C 2.34375 112.597656 1.527344 112.441406 0.910156 111.578125 C 0.292969 110.714844 0.925781 109.988281 1.480469 109.480469 C 2.421875 108.617188 3.070312 107.597656 3.550781 106.46875 C 4.566406 104.0625 7.082031 102.953125 8.441406 100.824219 C 8.609375 100.5625 9.226562 100.453125 9.628906 100.46875 C 10.632812 100.5 11.605469 100.097656 12.175781 99.527344 C 16.292969 95.46875 21.804688 93.769531 26.539062 90.777344 C 29.566406 88.863281 31.832031 86.226562 32.359375 82.476562 C 32.480469 81.613281 32.976562 81.011719 33.578125 80.46875 C 35.226562 78.957031 37.003906 77.601562 37.851562 75.378906 C 38.34375 74.082031 39.394531 73.1875 40.738281 72.707031 C 41.941406 72.277344 42.171875 71.597656 41.414062 70.472656 C 40.382812 68.898438 39.640625 67.324219 41.03125 65.410156 C 42.015625 64.050781 43.082031 63.28125 44.71875 63.726562 C 45.722656 64.003906 46.058594 63.433594 46.398438 62.753906 C 46.878906 61.828125 47.308594 60.828125 48.113281 60.164062 C 49.71875 58.820312 49.640625 57.167969 49.085938 55.441406 C 48.375 53.1875 48.699219 52.0625 50.566406 50.671875 C 51.753906 49.792969 52.867188 48.835938 53.375 47.339844 C 53.882812 45.828125 55.164062 44.871094 56.261719 43.804688 C 57.617188 42.496094 58.496094 40.953125 58.234375 39.039062 C 57.863281 36.382812 58.976562 34.101562 59.871094 31.753906 C 60.226562 30.8125 61.183594 30.382812 62.046875 30.210938 C 63.203125 29.980469 63.730469 29.195312 64.46875 28.421875 C 66.644531 26.136719 67.847656 22.882812 71.042969 21.617188 C 72.695312 20.96875 74.359375 20.351562 76.074219 19.875 C 78.789062 19.117188 80.175781 17.082031 81.179688 14.71875 C 82.601562 11.355469 85.054688 9.132812 88.433594 7.898438 C 91.734375 6.695312 95.484375 6.234375 97.597656 2.960938 C 99.050781 0.722656 101.101562 0.292969 103.492188 0.445312 C 104.28125 0.492188 105.019531 0.664062 105.484375 1.25 C 107.550781 3.839844 110.5 3.792969 113.414062 4.289062 C 116.191406 4.765625 119.046875 4.566406 121.761719 5.507812 C 122.378906 5.722656 123.105469 5.644531 123.785156 5.660156 C 127.242188 5.675781 130.699219 5.753906 134.152344 5.660156 C 136.777344 5.601562 139.261719 5.941406 141.714844 6.925781 C 143.164062 7.511719 144.769531 7.160156 146.3125 7.144531 C 147.316406 7.128906 148.273438 7.175781 149.089844 7.882812 C 150.15625 8.808594 150.371094 9.75 149.398438 10.894531 C 147.640625 12.960938 147.5625 15.058594 149.105469 17.375 C 151.4375 20.859375 151.4375 19.949219 153.070312 17.066406 C 153.164062 16.910156 153.210938 16.726562 153.304688 16.554688 C 154.398438 14.535156 156.019531 13.53125 157.5 13.933594 C 159.089844 14.347656 159.953125 15.832031 159.984375 18.191406 C 160.015625 19.917969 160 21.648438 160.015625 23.375 C 160.015625 23.421875 160.125 23.53125 160.171875 23.625 Z M 160.171875 23.625 " fill-opacity="1" fill-rule="nonzero"/></g><path fill="#a6a6a6" d="M 102.90625 58.578125 C 103.46875 57.402344 104.132812 57.199219 105.253906 57.8125 C 105.5625 57.964844 105.816406 58.167969 106.121094 58.371094 C 107.144531 59.035156 108.164062 59.75 109.234375 60.3125 C 111.023438 61.230469 112.808594 60.921875 113.777344 59.546875 C 114.898438 58.015625 115.054688 56.179688 114.953125 54.339844 C 114.746094 54.597656 114.644531 54.851562 114.542969 55.15625 C 113.980469 56.433594 113.316406 56.6875 112.144531 56.023438 C 111.683594 55.769531 111.226562 55.414062 110.765625 55.15625 C 109.746094 54.492188 108.726562 53.78125 107.601562 53.269531 C 106.480469 52.757812 105.253906 52.859375 104.183594 53.675781 C 103.113281 54.492188 101.988281 57.351562 102.601562 59.136719 C 102.753906 58.882812 102.855469 58.730469 102.90625 58.578125 Z M 102.90625 58.578125 " fill-opacity="1" fill-rule="nonzero"/><path fill="#a6a6a6" d="M 111.277344 61.027344 C 110.613281 61.027344 109.898438 60.820312 109.132812 60.464844 C 108.367188 60.054688 107.652344 59.597656 106.9375 59.136719 C 106.632812 58.933594 106.328125 58.730469 105.96875 58.523438 L 105.714844 58.371094 C 105.511719 58.269531 105.304688 58.117188 105.101562 58.015625 C 104.59375 57.757812 104.234375 57.65625 103.929688 57.757812 C 103.621094 57.863281 103.367188 58.167969 103.113281 58.679688 L 102.550781 59.800781 L 102.347656 59.1875 C 101.785156 57.351562 102.804688 54.339844 104.03125 53.421875 C 105.152344 52.605469 106.429688 52.453125 107.703125 52.960938 C 108.519531 53.320312 109.285156 53.832031 110.050781 54.289062 C 110.359375 54.492188 110.613281 54.648438 110.917969 54.851562 C 111.125 54.953125 111.328125 55.105469 111.53125 55.257812 C 111.789062 55.414062 112.042969 55.617188 112.296875 55.769531 C 112.808594 56.074219 113.214844 56.179688 113.523438 56.074219 C 113.828125 55.972656 114.082031 55.617188 114.339844 55.054688 L 114.390625 54.953125 C 114.492188 54.699219 114.59375 54.441406 114.796875 54.1875 L 115.207031 53.625 L 115.257812 54.339844 C 115.359375 56.023438 115.257812 58.015625 114.03125 59.699219 C 113.371094 60.566406 112.398438 61.027344 111.277344 61.027344 Z M 104.234375 57.199219 C 104.59375 57.199219 104.949219 57.300781 105.410156 57.554688 C 105.613281 57.65625 105.816406 57.8125 106.019531 57.964844 L 106.277344 58.117188 C 106.582031 58.320312 106.9375 58.523438 107.246094 58.730469 C 107.960938 59.1875 108.625 59.648438 109.390625 60.003906 C 111.074219 60.871094 112.707031 60.566406 113.625 59.289062 C 114.542969 58.066406 114.746094 56.636719 114.746094 55.257812 C 114.441406 55.921875 114.082031 56.332031 113.675781 56.433594 C 113.214844 56.585938 112.707031 56.484375 112.042969 56.125 C 111.789062 55.972656 111.480469 55.769531 111.226562 55.617188 C 111.023438 55.464844 110.867188 55.359375 110.664062 55.257812 C 110.359375 55.105469 110.101562 54.902344 109.796875 54.699219 C 109.082031 54.238281 108.316406 53.726562 107.550781 53.421875 C 106.480469 52.960938 105.359375 53.066406 104.386719 53.78125 C 103.570312 54.390625 102.601562 56.585938 102.753906 58.269531 C 103.0625 57.707031 103.417969 57.351562 103.828125 57.199219 C 103.929688 57.199219 104.082031 57.199219 104.234375 57.199219 Z M 104.234375 57.199219 " fill-opacity="1" fill-rule="nonzero"/><path fill="#a6a6a6" d="M 93.210938 83.734375 C 91.886719 81.335938 89.84375 79.550781 87.804688 77.765625 C 85.660156 75.824219 83.363281 74.039062 81.320312 71.996094 C 79.945312 70.671875 78.972656 68.988281 79.128906 66.945312 C 79.179688 65.71875 79.996094 64.851562 81.21875 64.902344 C 82.085938 64.957031 83.007812 65.160156 83.769531 65.515625 C 86.730469 66.84375 88.976562 69.039062 90.914062 71.539062 C 91.886719 72.761719 92.703125 74.140625 93.671875 75.570312 C 93.722656 75.3125 93.773438 75.109375 93.773438 74.957031 C 93.773438 72.097656 93.824219 69.292969 93.773438 66.433594 C 93.773438 66.078125 93.363281 65.617188 93.058594 65.464844 C 89.742188 63.730469 86.222656 63.015625 82.496094 63.832031 C 79.28125 64.546875 77.035156 66.382812 76.066406 69.597656 C 74.941406 73.425781 75.554688 77 77.75 80.265625 C 79.128906 82.304688 80.914062 83.886719 82.75 85.46875 L 94.078125 85.46875 C 93.824219 84.910156 93.570312 84.347656 93.210938 83.734375 Z M 93.210938 83.734375 " fill-opacity="1" fill-rule="nonzero"/><path fill="#a6a6a6" d="M 94.488281 85.777344 L 82.597656 85.777344 L 82.546875 85.726562 C 80.660156 84.089844 78.871094 82.511719 77.496094 80.46875 C 75.199219 77.101562 74.636719 73.425781 75.808594 69.597656 C 76.730469 66.382812 78.972656 64.394531 82.394531 63.628906 C 85.964844 62.863281 89.488281 63.375 93.109375 65.261719 C 93.519531 65.464844 93.976562 66.027344 93.976562 66.484375 C 94.027344 68.832031 94.027344 71.179688 94.027344 73.476562 L 94.027344 75.007812 C 94.027344 75.160156 93.976562 75.3125 93.976562 75.417969 C 93.976562 75.46875 93.925781 75.570312 93.925781 75.621094 L 93.824219 76.234375 L 93.46875 75.722656 C 93.160156 75.261719 92.90625 74.855469 92.601562 74.394531 C 91.988281 73.425781 91.425781 72.558594 90.761719 71.691406 C 88.414062 68.679688 86.222656 66.84375 83.71875 65.71875 C 83.007812 65.414062 82.136719 65.210938 81.269531 65.160156 C 80.8125 65.160156 80.402344 65.261719 80.046875 65.566406 C 79.6875 65.875 79.484375 66.382812 79.433594 66.996094 C 79.332031 68.730469 80.046875 70.363281 81.578125 71.84375 C 82.953125 73.171875 84.433594 74.445312 85.914062 75.722656 C 86.628906 76.335938 87.34375 76.949219 88.058594 77.609375 L 88.210938 77.710938 C 90.148438 79.449219 92.191406 81.234375 93.519531 83.632812 C 93.824219 84.195312 94.128906 84.804688 94.386719 85.417969 Z M 82.800781 85.265625 L 93.722656 85.265625 C 93.519531 84.804688 93.261719 84.347656 93.007812 83.886719 C 91.730469 81.589844 89.742188 79.804688 87.804688 78.121094 L 87.648438 78.019531 C 86.933594 77.40625 86.222656 76.742188 85.507812 76.132812 C 84.078125 74.90625 82.546875 73.578125 81.167969 72.253906 C 79.535156 70.671875 78.769531 68.882812 78.871094 66.996094 C 78.921875 66.28125 79.179688 65.667969 79.636719 65.210938 C 78.003906 66.179688 76.882812 67.710938 76.269531 69.699219 C 75.148438 73.375 75.707031 76.894531 77.902344 80.164062 C 79.230469 82.101562 80.964844 83.683594 82.800781 85.265625 Z M 81.066406 64.699219 C 81.117188 64.699219 81.167969 64.699219 81.21875 64.699219 C 82.136719 64.75 83.109375 64.957031 83.875 65.3125 C 86.476562 66.484375 88.722656 68.375 91.121094 71.4375 C 91.785156 72.304688 92.394531 73.222656 93.007812 74.140625 C 93.160156 74.394531 93.3125 74.652344 93.519531 74.90625 L 93.519531 73.425781 C 93.519531 71.128906 93.519531 68.78125 93.46875 66.433594 C 93.46875 66.230469 93.160156 65.824219 92.855469 65.667969 C 89.332031 63.832031 85.964844 63.320312 82.496094 64.085938 C 81.78125 64.242188 81.117188 64.445312 80.503906 64.75 C 80.660156 64.699219 80.863281 64.699219 81.066406 64.699219 Z M 81.066406 64.699219 " fill-opacity="1" fill-rule="nonzero"/><path fill="#a6a6a6" d="M 84.792969 101.085938 C 84.585938 101.085938 84.382812 101.085938 84.230469 101.085938 C 80.863281 100.933594 78.261719 100.269531 75.964844 98.941406 C 75.605469 98.738281 75.199219 98.226562 75.199219 97.820312 C 75.199219 94.808594 75.199219 91.847656 75.199219 88.734375 L 75.199219 85.367188 L 75.65625 86.183594 C 75.964844 86.746094 76.269531 87.253906 76.574219 87.765625 C 77.1875 88.835938 77.800781 89.910156 78.464844 90.878906 C 80.863281 94.554688 83.160156 96.847656 85.863281 98.277344 C 86.628906 98.6875 87.546875 98.941406 88.671875 99.042969 C 89.691406 99.144531 90.507812 98.484375 90.710938 97.410156 C 91.121094 95.421875 90.609375 93.582031 89.28125 92.050781 C 87.75 90.265625 85.964844 88.683594 84.332031 87.253906 C 83.875 86.847656 83.363281 86.4375 82.902344 86.03125 L 81.933594 85.214844 L 94.183594 85.214844 L 94.234375 85.367188 C 95.867188 89.246094 95.558594 92.972656 93.3125 96.441406 C 91.425781 99.554688 88.566406 101.085938 84.792969 101.085938 Z M 75.707031 87.253906 L 75.707031 88.734375 C 75.707031 91.847656 75.707031 94.808594 75.757812 97.769531 C 75.757812 97.972656 76.015625 98.277344 76.269531 98.429688 C 78.464844 99.707031 81.015625 100.371094 84.28125 100.523438 C 86.167969 100.625 87.855469 100.269531 89.28125 99.554688 C 89.078125 99.605469 88.875 99.605469 88.671875 99.554688 C 87.496094 99.402344 86.476562 99.144531 85.660156 98.6875 C 82.035156 96.746094 79.6875 93.632812 78.054688 91.082031 C 77.390625 90.0625 76.78125 89.042969 76.167969 87.917969 C 76.015625 87.765625 75.863281 87.511719 75.707031 87.253906 Z M 89.742188 91.796875 C 91.171875 93.429688 91.679688 95.421875 91.273438 97.5625 C 91.171875 97.972656 91.070312 98.328125 90.863281 98.585938 C 91.679688 97.921875 92.34375 97.15625 92.957031 96.1875 C 95.050781 92.921875 95.355469 89.398438 93.875 85.726562 L 83.363281 85.726562 C 83.824219 86.132812 84.28125 86.488281 84.691406 86.898438 C 86.324219 88.328125 88.160156 90.011719 89.742188 91.796875 Z M 89.742188 91.796875 " fill-opacity="1" fill-rule="nonzero"/><path fill="#a6a6a6" d="M 133.832031 101.085938 C 130.976562 101.085938 128.320312 99.859375 126.230469 97.511719 C 124.136719 95.164062 122.808594 92.257812 121.992188 88.480469 C 121.789062 87.5625 121.636719 86.59375 121.535156 85.570312 L 121.484375 85.265625 L 131.128906 85.265625 L 131.128906 85.519531 C 131.433594 93.53125 132.761719 98.328125 133.832031 98.328125 C 134.90625 98.328125 136.179688 93.53125 136.539062 85.519531 L 136.539062 85.265625 L 146.234375 85.265625 L 146.183594 85.519531 C 145.824219 89.246094 144.855469 92.460938 143.171875 95.214844 C 141.589844 97.871094 139.648438 99.554688 137.304688 100.421875 C 136.179688 100.882812 135.007812 101.085938 133.832031 101.085938 Z M 122.09375 85.777344 C 122.199219 86.644531 122.351562 87.511719 122.503906 88.328125 C 123.269531 92.050781 124.597656 94.859375 126.585938 97.15625 C 129.34375 100.269531 133.269531 101.339844 137.148438 99.960938 C 139.394531 99.144531 141.230469 97.511719 142.761719 94.960938 C 144.34375 92.308594 145.316406 89.296875 145.722656 85.726562 L 137.097656 85.726562 C 136.84375 91.796875 135.875 98.789062 133.933594 98.789062 C 131.996094 98.789062 131.027344 91.796875 130.769531 85.726562 L 122.09375 85.726562 Z M 122.09375 85.777344 " fill-opacity="1" fill-rule="nonzero"/><path fill="#a6a6a6" d="M 116.585938 100.828125 C 116.125 100.828125 115.613281 100.828125 115.15625 100.828125 L 113.472656 100.828125 L 112.960938 98.839844 C 112.605469 97.460938 112.246094 96.136719 111.890625 94.757812 L 111.839844 94.554688 C 111.074219 91.542969 110.257812 88.53125 109.492188 85.570312 L 109.390625 85.265625 L 117.707031 85.265625 L 121.839844 100.675781 L 121.535156 100.726562 C 121.433594 100.726562 121.332031 100.777344 121.277344 100.777344 C 121.125 100.777344 121.023438 100.828125 120.921875 100.828125 C 119.492188 100.828125 118.0625 100.828125 116.585938 100.828125 Z M 113.878906 100.320312 L 115.15625 100.320312 C 117.09375 100.320312 119.035156 100.320312 120.972656 100.320312 C 121.023438 100.320312 121.125 100.320312 121.226562 100.269531 L 117.351562 85.777344 L 110.050781 85.777344 C 110.816406 88.683594 111.582031 91.542969 112.296875 94.449219 L 112.347656 94.65625 C 112.707031 95.980469 113.0625 97.359375 113.421875 98.738281 Z M 113.878906 100.320312 " fill-opacity="1" fill-rule="nonzero"/><path fill="#a6a6a6" d="M 102.550781 100.726562 L 95.558594 100.726562 L 99.589844 85.214844 L 100.765625 85.214844 L 100.714844 85.519531 C 100.40625 87.664062 100.152344 90.46875 100.5625 93.378906 C 100.917969 95.980469 101.480469 98.023438 102.296875 99.808594 C 102.347656 99.910156 102.398438 100.0625 102.398438 100.21875 C 102.398438 100.269531 102.398438 100.371094 102.449219 100.421875 Z M 96.222656 100.21875 L 101.886719 100.21875 C 101.886719 100.167969 101.835938 100.0625 101.835938 100.011719 C 101.019531 98.175781 100.40625 96.085938 100.050781 93.429688 C 99.640625 90.625 99.898438 87.867188 100.203125 85.726562 L 100 85.726562 Z M 96.222656 100.21875 " fill-opacity="1" fill-rule="nonzero"/><path fill="#a6a6a6" d="M 133.933594 98.789062 C 131.945312 98.789062 130.976562 91.644531 130.71875 85.519531 L 130.71875 85.265625 L 137.148438 85.265625 L 137.148438 85.519531 C 136.84375 91.644531 135.875 98.789062 133.933594 98.789062 Z M 131.230469 85.777344 C 131.585938 93.632812 132.863281 98.328125 133.882812 98.328125 C 134.90625 98.328125 136.230469 93.632812 136.539062 85.777344 Z M 131.230469 85.777344 " fill-opacity="1" fill-rule="nonzero"/><path fill="#a6a6a6" d="M 133.832031 101.085938 C 130.976562 101.085938 128.320312 99.859375 126.230469 97.511719 C 124.136719 95.164062 122.808594 92.257812 121.992188 88.480469 C 121.789062 87.5625 121.636719 86.59375 121.535156 85.570312 L 121.484375 85.265625 L 131.128906 85.265625 L 131.128906 85.519531 C 131.433594 93.53125 132.761719 98.328125 133.832031 98.328125 C 134.90625 98.328125 136.179688 93.53125 136.539062 85.519531 L 136.539062 85.265625 L 146.234375 85.265625 L 146.183594 85.519531 C 145.824219 89.195312 144.804688 92.460938 143.121094 95.214844 C 141.539062 97.871094 139.597656 99.554688 137.25 100.421875 C 136.179688 100.882812 135.007812 101.085938 133.832031 101.085938 Z M 122.09375 85.777344 C 122.199219 86.644531 122.351562 87.511719 122.503906 88.328125 C 123.269531 92.050781 124.597656 94.859375 126.585938 97.15625 C 129.34375 100.269531 133.269531 101.339844 137.148438 99.960938 C 139.394531 99.144531 141.230469 97.511719 142.761719 94.960938 C 144.34375 92.308594 145.367188 89.246094 145.722656 85.726562 L 137.046875 85.726562 C 136.792969 91.796875 135.824219 98.789062 133.882812 98.789062 C 131.945312 98.789062 130.976562 91.796875 130.71875 85.726562 L 122.09375 85.726562 Z M 122.09375 85.777344 " fill-opacity="1" fill-rule="nonzero"/><path fill="#a6a6a6" d="M 93.210938 83.734375 C 91.886719 81.335938 89.84375 79.550781 87.804688 77.765625 C 85.660156 75.824219 83.363281 74.039062 81.320312 71.996094 C 79.945312 70.671875 78.972656 68.988281 79.128906 66.945312 C 79.179688 65.71875 79.996094 64.851562 81.21875 64.902344 C 82.085938 64.957031 83.007812 65.160156 83.769531 65.515625 C 86.730469 66.84375 88.976562 69.039062 90.914062 71.539062 C 91.886719 72.761719 92.703125 74.140625 93.671875 75.570312 C 93.722656 75.3125 93.773438 75.109375 93.773438 74.957031 C 93.773438 72.097656 93.824219 69.292969 93.773438 66.433594 C 93.773438 66.078125 93.363281 65.617188 93.058594 65.464844 C 89.742188 63.730469 86.222656 63.015625 82.496094 63.832031 C 79.28125 64.546875 77.035156 66.382812 76.066406 69.597656 C 74.941406 73.425781 75.554688 77 77.75 80.265625 C 79.128906 82.304688 80.914062 83.886719 82.75 85.46875 L 94.078125 85.46875 C 93.824219 84.910156 93.570312 84.347656 93.210938 83.734375 Z M 93.210938 83.734375 " fill-opacity="1" fill-rule="nonzero"/><path fill="#a6a6a6" d="M 94.488281 85.777344 L 82.597656 85.777344 L 82.546875 85.726562 C 80.660156 84.089844 78.871094 82.511719 77.496094 80.46875 C 75.199219 77.101562 74.636719 73.425781 75.808594 69.597656 C 76.730469 66.382812 78.972656 64.394531 82.394531 63.628906 C 85.964844 62.863281 89.488281 63.375 93.109375 65.261719 C 93.519531 65.464844 93.976562 66.027344 93.976562 66.484375 C 94.027344 68.832031 94.027344 71.179688 94.027344 73.476562 L 94.027344 75.007812 C 94.027344 75.160156 93.976562 75.3125 93.976562 75.417969 C 93.976562 75.46875 93.925781 75.570312 93.925781 75.621094 L 93.824219 76.234375 L 93.46875 75.722656 C 93.160156 75.261719 92.90625 74.855469 92.601562 74.394531 C 91.988281 73.425781 91.425781 72.558594 90.761719 71.691406 C 88.414062 68.679688 86.222656 66.84375 83.71875 65.71875 C 83.007812 65.414062 82.136719 65.210938 81.269531 65.160156 C 80.8125 65.160156 80.402344 65.261719 80.046875 65.566406 C 79.6875 65.875 79.484375 66.382812 79.433594 66.996094 C 79.332031 68.730469 80.046875 70.363281 81.578125 71.84375 C 82.953125 73.171875 84.433594 74.445312 85.914062 75.722656 C 86.628906 76.335938 87.34375 76.949219 88.058594 77.609375 L 88.210938 77.710938 C 90.148438 79.449219 92.191406 81.234375 93.519531 83.632812 C 93.824219 84.195312 94.128906 84.804688 94.386719 85.417969 Z M 82.800781 85.265625 L 93.722656 85.265625 C 93.519531 84.804688 93.261719 84.347656 93.007812 83.886719 C 91.730469 81.589844 89.742188 79.804688 87.804688 78.121094 L 87.648438 78.019531 C 86.933594 77.40625 86.222656 76.742188 85.507812 76.132812 C 84.078125 74.90625 82.546875 73.578125 81.167969 72.253906 C 79.535156 70.671875 78.769531 68.882812 78.871094 66.996094 C 78.921875 66.28125 79.179688 65.667969 79.636719 65.210938 C 78.003906 66.179688 76.882812 67.710938 76.269531 69.699219 C 75.148438 73.375 75.707031 76.894531 77.902344 80.164062 C 79.230469 82.101562 80.964844 83.683594 82.800781 85.265625 Z M 81.066406 64.699219 C 81.117188 64.699219 81.167969 64.699219 81.21875 64.699219 C 82.136719 64.75 83.109375 64.957031 83.875 65.3125 C 86.476562 66.484375 88.722656 68.375 91.121094 71.4375 C 91.785156 72.304688 92.394531 73.222656 93.007812 74.140625 C 93.160156 74.394531 93.3125 74.652344 93.519531 74.90625 L 93.519531 73.425781 C 93.519531 71.128906 93.519531 68.78125 93.46875 66.433594 C 93.46875 66.230469 93.160156 65.824219 92.855469 65.667969 C 89.332031 63.832031 85.964844 63.320312 82.496094 64.085938 C 81.78125 64.242188 81.117188 64.445312 80.503906 64.75 C 80.660156 64.699219 80.863281 64.699219 81.066406 64.699219 Z M 81.066406 64.699219 " fill-opacity="1" fill-rule="nonzero"/><path fill="#a6a6a6" d="M 84.792969 101.085938 C 84.585938 101.085938 84.382812 101.085938 84.230469 101.085938 C 80.863281 100.933594 78.261719 100.269531 75.964844 98.941406 C 75.605469 98.738281 75.199219 98.226562 75.199219 97.820312 C 75.199219 94.808594 75.199219 91.847656 75.199219 88.734375 L 75.199219 85.367188 L 75.65625 86.183594 C 75.964844 86.746094 76.269531 87.253906 76.574219 87.765625 C 77.1875 88.835938 77.800781 89.910156 78.464844 90.878906 C 80.863281 94.554688 83.160156 96.847656 85.863281 98.277344 C 86.628906 98.6875 87.546875 98.941406 88.671875 99.042969 C 89.691406 99.144531 90.507812 98.484375 90.710938 97.410156 C 91.121094 95.421875 90.609375 93.582031 89.28125 92.050781 C 87.75 90.265625 85.964844 88.683594 84.332031 87.253906 C 83.875 86.847656 83.363281 86.4375 82.902344 86.03125 L 81.933594 85.214844 L 94.183594 85.214844 L 94.234375 85.367188 C 95.867188 89.246094 95.558594 92.972656 93.3125 96.441406 C 91.425781 99.554688 88.566406 101.085938 84.792969 101.085938 Z M 75.707031 87.253906 L 75.707031 88.734375 C 75.707031 91.847656 75.707031 94.808594 75.757812 97.769531 C 75.757812 97.972656 76.015625 98.277344 76.269531 98.429688 C 78.464844 99.707031 81.015625 100.371094 84.28125 100.523438 C 86.167969 100.625 87.855469 100.269531 89.28125 99.554688 C 89.078125 99.605469 88.875 99.605469 88.671875 99.554688 C 87.496094 99.402344 86.476562 99.144531 85.660156 98.6875 C 82.035156 96.746094 79.6875 93.632812 78.054688 91.082031 C 77.390625 90.0625 76.78125 89.042969 76.167969 87.917969 C 76.015625 87.765625 75.863281 87.511719 75.707031 87.253906 Z M 89.742188 91.796875 C 91.171875 93.429688 91.679688 95.421875 91.273438 97.5625 C 91.171875 97.972656 91.070312 98.328125 90.863281 98.585938 C 91.679688 97.921875 92.34375 97.15625 92.957031 96.1875 C 95.050781 92.921875 95.355469 89.398438 93.875 85.726562 L 83.363281 85.726562 C 83.824219 86.132812 84.28125 86.488281 84.691406 86.898438 C 86.324219 88.328125 88.160156 90.011719 89.742188 91.796875 Z M 89.742188 91.796875 " fill-opacity="1" fill-rule="nonzero"/><path fill="#a6a6a6" d="M 116.585938 100.828125 C 116.125 100.828125 115.613281 100.828125 115.15625 100.828125 L 113.472656 100.828125 L 112.960938 98.839844 C 112.605469 97.460938 112.246094 96.136719 111.890625 94.757812 L 111.839844 94.554688 C 111.074219 91.542969 110.257812 88.53125 109.492188 85.570312 L 109.390625 85.265625 L 117.707031 85.265625 L 121.839844 100.726562 L 121.535156 100.777344 C 121.433594 100.777344 121.332031 100.828125 121.277344 100.828125 C 121.125 100.828125 121.023438 100.882812 120.921875 100.882812 C 119.492188 100.828125 118.0625 100.828125 116.585938 100.828125 Z M 113.878906 100.320312 L 115.15625 100.320312 C 117.09375 100.320312 119.035156 100.320312 120.972656 100.320312 C 121.023438 100.320312 121.125 100.320312 121.226562 100.269531 L 117.351562 85.777344 L 110.050781 85.777344 C 110.816406 88.683594 111.582031 91.542969 112.296875 94.449219 L 112.347656 94.65625 C 112.707031 95.980469 113.0625 97.359375 113.421875 98.738281 Z M 113.878906 100.320312 " fill-opacity="1" fill-rule="nonzero"/><path fill="#a6a6a6" d="M 102.550781 100.726562 L 95.558594 100.726562 L 99.589844 85.214844 L 100.765625 85.214844 L 100.714844 85.519531 C 100.40625 87.664062 100.152344 90.46875 100.5625 93.378906 C 100.917969 95.980469 101.480469 98.023438 102.296875 99.808594 C 102.347656 99.910156 102.398438 100.0625 102.398438 100.21875 C 102.398438 100.269531 102.398438 100.371094 102.449219 100.421875 Z M 96.222656 100.21875 L 101.886719 100.21875 C 101.886719 100.167969 101.835938 100.0625 101.835938 100.011719 C 101.019531 98.175781 100.40625 96.085938 100.050781 93.429688 C 99.640625 90.625 99.898438 87.867188 100.203125 85.726562 L 100 85.726562 Z M 96.222656 100.21875 " fill-opacity="1" fill-rule="nonzero"/><path fill="#a6a6a6" d="M 102.652344 59.085938 C 102.089844 57.300781 103.164062 54.441406 104.234375 53.625 C 105.304688 52.808594 106.480469 52.707031 107.652344 53.21875 C 108.777344 53.726562 109.746094 54.441406 110.816406 55.105469 C 111.277344 55.414062 111.683594 55.71875 112.195312 55.972656 C 113.421875 56.636719 114.03125 56.382812 114.59375 55.105469 C 114.695312 54.851562 114.796875 54.542969 115.003906 54.289062 C 115.105469 56.125 114.953125 57.914062 113.828125 59.496094 C 112.808594 60.871094 111.074219 61.179688 109.285156 60.261719 C 108.214844 59.699219 107.195312 58.984375 106.175781 58.320312 C 105.867188 58.117188 105.613281 57.964844 105.304688 57.757812 C 104.183594 57.148438 103.519531 57.351562 102.960938 58.523438 C 102.855469 58.730469 102.753906 58.882812 102.652344 59.085938 Z M 102.652344 59.085938 " fill-opacity="1" fill-rule="nonzero"/><path fill="#a6a6a6" d="M 111.277344 61.027344 C 110.613281 61.027344 109.898438 60.820312 109.132812 60.464844 C 108.367188 60.054688 107.652344 59.597656 106.9375 59.136719 C 106.632812 58.933594 106.328125 58.730469 105.96875 58.523438 L 105.714844 58.371094 C 105.511719 58.269531 105.304688 58.117188 105.101562 58.015625 C 104.59375 57.757812 104.234375 57.65625 103.929688 57.757812 C 103.621094 57.863281 103.367188 58.167969 103.113281 58.679688 L 102.550781 59.800781 L 102.347656 59.1875 C 101.785156 57.351562 102.804688 54.339844 104.03125 53.421875 C 105.152344 52.605469 106.429688 52.453125 107.703125 52.960938 C 108.519531 53.320312 109.285156 53.832031 110.050781 54.289062 C 110.359375 54.492188 110.613281 54.648438 110.917969 54.851562 C 111.125 54.953125 111.328125 55.105469 111.53125 55.257812 C 111.789062 55.414062 112.042969 55.617188 112.296875 55.769531 C 112.808594 56.074219 113.214844 56.179688 113.523438 56.074219 C 113.828125 55.972656 114.082031 55.617188 114.339844 55.054688 L 114.390625 54.953125 C 114.492188 54.699219 114.59375 54.441406 114.796875 54.1875 L 115.207031 53.625 L 115.257812 54.339844 C 115.359375 56.023438 115.257812 58.015625 114.03125 59.699219 C 113.371094 60.566406 112.398438 61.027344 111.277344 61.027344 Z M 104.234375 57.199219 C 104.59375 57.199219 104.949219 57.300781 105.410156 57.554688 C 105.613281 57.65625 105.816406 57.8125 106.019531 57.964844 L 106.277344 58.117188 C 106.582031 58.320312 106.9375 58.523438 107.246094 58.730469 C 107.960938 59.1875 108.625 59.648438 109.390625 60.003906 C 111.074219 60.871094 112.707031 60.566406 113.625 59.289062 C 114.542969 58.066406 114.746094 56.636719 114.746094 55.257812 C 114.441406 55.921875 114.082031 56.332031 113.675781 56.433594 C 113.214844 56.585938 112.707031 56.484375 112.042969 56.125 C 111.789062 55.972656 111.480469 55.769531 111.226562 55.617188 C 111.023438 55.464844 110.867188 55.359375 110.664062 55.257812 C 110.359375 55.105469 110.101562 54.902344 109.796875 54.699219 C 109.082031 54.238281 108.316406 53.726562 107.550781 53.421875 C 106.480469 52.960938 105.359375 53.066406 104.386719 53.78125 C 103.570312 54.390625 102.601562 56.585938 102.753906 58.269531 C 103.0625 57.707031 103.417969 57.351562 103.828125 57.199219 C 103.929688 57.199219 104.082031 57.199219 104.234375 57.199219 Z M 104.234375 57.199219 " fill-opacity="1" fill-rule="nonzero"/><path fill="#a6a6a6" d="M 158.890625 85.367188 C 158.890625 85.113281 158.839844 84.804688 158.839844 84.550781 C 158.839844 78.121094 158.839844 71.691406 158.839844 65.261719 C 158.839844 64.136719 159.144531 63.882812 160.265625 64.242188 C 162.257812 64.800781 163.277344 66.332031 163.839844 68.171875 C 164.910156 71.589844 164.65625 75.058594 163.636719 78.476562 C 163.023438 80.570312 162.15625 82.511719 160.675781 84.144531 C 160.214844 84.652344 159.601562 85.113281 159.09375 85.570312 L 159.757812 85.570312 C 161.339844 85.113281 162.972656 84.703125 164.453125 83.988281 C 168.6875 81.949219 171.851562 78.9375 172.359375 73.9375 C 172.71875 70.671875 171.800781 67.964844 168.992188 66.078125 C 166.695312 64.546875 164.042969 64.085938 161.339844 63.984375 C 158.019531 63.882812 154.652344 63.933594 151.285156 63.933594 C 151.132812 63.933594 150.929688 63.984375 150.773438 63.984375 C 150.773438 71.179688 150.773438 78.375 150.773438 85.570312 L 159.09375 85.570312 C 159.042969 85.46875 158.941406 85.417969 158.890625 85.367188 Z M 158.890625 85.367188 " fill-opacity="1" fill-rule="nonzero"/><path fill="#a6a6a6" d="M 159.960938 85.777344 L 150.519531 85.777344 L 150.519531 63.679688 L 150.929688 63.628906 C 151.082031 63.628906 151.183594 63.578125 151.285156 63.578125 C 152.253906 63.578125 153.222656 63.578125 154.246094 63.578125 C 156.59375 63.578125 158.992188 63.578125 161.339844 63.628906 C 164.707031 63.730469 167.105469 64.394531 169.09375 65.773438 C 171.800781 67.609375 172.972656 70.3125 172.617188 73.886719 C 172.105469 78.425781 169.503906 81.796875 164.554688 84.144531 C 163.175781 84.804688 161.644531 85.214844 160.214844 85.621094 Z M 151.082031 85.265625 L 158.632812 85.265625 L 158.632812 85.113281 C 158.632812 84.910156 158.632812 84.703125 158.632812 84.5 C 158.632812 78.070312 158.632812 71.640625 158.632812 65.210938 C 158.632812 64.800781 158.683594 64.394531 158.839844 64.136719 C 157.308594 64.136719 155.828125 64.136719 154.347656 64.136719 C 153.378906 64.136719 152.355469 64.136719 151.386719 64.136719 C 151.285156 64.136719 151.234375 64.136719 151.132812 64.136719 L 151.132812 85.265625 Z M 159.5 64.292969 C 159.398438 64.292969 159.296875 64.292969 159.246094 64.34375 C 159.144531 64.445312 159.042969 64.699219 159.042969 65.210938 C 159.042969 71.640625 159.042969 78.070312 159.042969 84.5 C 159.042969 84.703125 159.042969 84.855469 159.042969 85.0625 L 159.042969 85.164062 C 159.144531 85.0625 159.246094 84.960938 159.398438 84.855469 C 159.757812 84.550781 160.113281 84.246094 160.472656 83.886719 C 161.746094 82.511719 162.664062 80.722656 163.378906 78.324219 C 164.453125 74.601562 164.554688 71.28125 163.582031 68.171875 C 162.921875 66.078125 161.847656 64.902344 160.164062 64.394531 C 159.910156 64.34375 159.65625 64.292969 159.5 64.292969 Z M 159.5 64.292969 " fill-opacity="1" fill-rule="nonzero"/><path fill="#a6a6a6" d="M 159.042969 99.453125 C 159.042969 97.003906 159.042969 94.503906 159.042969 92.050781 C 159.042969 90.214844 159.042969 88.429688 159.042969 86.59375 L 159.042969 86.4375 C 159.042969 86.082031 159.042969 85.929688 159.398438 85.828125 L 161.542969 85.214844 L 150.46875 85.214844 L 150.46875 101.289062 L 152.714844 101.289062 C 154.195312 101.289062 155.621094 101.289062 157.101562 101.289062 C 157.359375 101.289062 157.613281 101.289062 157.816406 101.289062 C 157.917969 101.289062 158.019531 101.289062 158.125 101.289062 C 158.480469 101.289062 158.683594 101.238281 158.839844 101.085938 C 159.042969 100.882812 159.042969 100.574219 159.042969 99.910156 C 159.042969 99.859375 159.042969 99.65625 159.042969 99.453125 Z M 158.53125 86.488281 L 158.53125 86.59375 C 158.53125 88.429688 158.53125 90.214844 158.53125 92.050781 C 158.53125 94.503906 158.53125 97.003906 158.53125 99.453125 C 158.53125 99.65625 158.53125 99.859375 158.53125 100.011719 C 158.53125 100.371094 158.53125 100.726562 158.480469 100.828125 C 158.429688 100.882812 158.125 100.882812 157.816406 100.882812 C 157.664062 100.882812 157.460938 100.882812 157.257812 100.882812 C 157.203125 100.882812 157.152344 100.882812 157.101562 100.882812 C 155.675781 100.882812 154.195312 100.882812 152.714844 100.882812 L 150.980469 100.882812 L 150.980469 85.828125 L 158.632812 85.828125 C 158.53125 85.980469 158.53125 86.285156 158.53125 86.488281 Z M 158.53125 86.488281 " fill-opacity="1" fill-rule="nonzero"/><path fill="#a6a6a6" d="M 206.703125 64.902344 C 206.703125 64.546875 206.703125 64.242188 206.703125 63.933594 C 203.949219 63.933594 201.347656 63.933594 198.691406 63.933594 C 198.691406 64.34375 198.691406 64.699219 198.691406 65.007812 C 198.691406 71.84375 198.691406 78.683594 198.691406 85.46875 L 206.757812 85.46875 C 206.703125 78.632812 206.703125 71.792969 206.703125 64.902344 Z M 206.703125 64.902344 " fill-opacity="1" fill-rule="nonzero"/><path fill="#a6a6a6" d="M 206.960938 85.777344 L 198.386719 85.777344 L 198.386719 85.519531 C 198.386719 80.367188 198.386719 75.210938 198.386719 70.007812 L 198.386719 63.679688 L 206.910156 63.679688 L 206.910156 64.902344 C 206.910156 67.199219 206.910156 69.546875 206.910156 71.84375 C 206.910156 76.386719 206.910156 80.929688 206.910156 85.519531 Z M 198.949219 85.265625 L 206.5 85.265625 C 206.5 80.773438 206.5 76.335938 206.5 71.84375 C 206.5 69.546875 206.5 67.199219 206.5 64.902344 L 206.5 64.191406 L 199 64.191406 L 199 70.007812 C 198.949219 75.109375 198.949219 80.164062 198.949219 85.265625 Z M 198.949219 85.265625 " fill-opacity="1" fill-rule="nonzero"/><path fill="#a6a6a6" d="M 218.441406 64.851562 C 218.441406 64.546875 218.390625 64.242188 218.390625 63.882812 C 216.808594 63.882812 215.328125 63.882812 213.695312 63.882812 C 215.074219 65.71875 215.890625 67.660156 216.503906 69.753906 C 217.625 73.734375 217.828125 77.816406 217.984375 81.949219 C 218.035156 83.121094 218.035156 84.347656 218.035156 85.519531 L 218.441406 85.519531 C 218.441406 78.632812 218.441406 71.742188 218.441406 64.851562 Z M 218.441406 64.851562 " fill-opacity="1" fill-rule="nonzero"/><path fill="#a6a6a6" d="M 218.699219 85.777344 L 217.777344 85.777344 L 217.777344 85.519531 C 217.777344 84.144531 217.726562 83.019531 217.726562 81.949219 C 217.574219 78.171875 217.421875 73.886719 216.246094 69.855469 C 215.636719 67.609375 214.71875 65.71875 213.492188 64.085938 L 213.1875 63.679688 L 218.644531 63.679688 L 218.699219 64.242188 C 218.699219 64.445312 218.75 64.699219 218.75 64.902344 L 218.75 66.640625 C 218.75 72.96875 218.75 79.242188 218.75 85.570312 Z M 214.207031 64.191406 C 215.328125 65.824219 216.144531 67.609375 216.757812 69.699219 C 217.828125 73.476562 218.085938 77.355469 218.1875 80.875 C 218.1875 76.132812 218.1875 71.335938 218.1875 66.589844 L 218.1875 64.851562 C 218.1875 64.648438 218.1875 64.445312 218.136719 64.242188 L 218.136719 64.191406 Z M 214.207031 64.191406 " fill-opacity="1" fill-rule="nonzero"/><path fill="#a6a6a6" d="M 208.898438 101.644531 C 207.316406 101.644531 205.734375 101.390625 204.253906 100.933594 C 200.988281 99.859375 199.152344 97.511719 198.640625 93.632812 C 198.4375 92.050781 198.4375 90.46875 198.4375 88.835938 L 198.4375 85.316406 L 207.011719 85.316406 L 207.011719 85.570312 C 207.011719 87.613281 207.011719 89.652344 207.0625 91.695312 C 207.0625 93.839844 207.417969 95.472656 208.132812 96.796875 C 209.15625 98.738281 210.839844 99.605469 213.289062 99.351562 C 215.226562 99.144531 216.707031 97.820312 217.167969 95.878906 C 217.523438 94.296875 217.777344 92.765625 217.777344 91.289062 C 217.828125 89.296875 217.882812 87.359375 217.882812 85.519531 L 217.882812 85.265625 L 218.800781 85.265625 L 218.800781 87.511719 C 218.800781 88.785156 218.800781 90.0625 218.800781 91.339844 C 218.800781 92.765625 218.644531 94.195312 218.390625 95.523438 C 217.777344 98.636719 215.738281 100.625 212.320312 101.289062 C 211.09375 101.542969 209.972656 101.644531 208.898438 101.644531 Z M 199.152344 93.53125 C 199.613281 97.207031 201.347656 99.453125 204.410156 100.421875 C 206.859375 101.1875 209.460938 101.339844 212.113281 100.777344 C 215.277344 100.117188 217.167969 98.328125 217.777344 95.421875 C 217.933594 94.65625 218.035156 93.890625 218.085938 93.125 C 217.984375 94.09375 217.777344 95.011719 217.574219 95.980469 C 217.0625 98.125 215.378906 99.605469 213.289062 99.808594 C 210.632812 100.066406 208.796875 99.144531 207.675781 97.003906 C 206.652344 95.113281 206.550781 93.023438 206.550781 91.644531 C 206.550781 89.707031 206.550781 87.714844 206.5 85.777344 L 198.949219 85.777344 L 198.949219 88.785156 C 198.898438 90.417969 198.949219 92 199.152344 93.53125 Z M 199.152344 93.53125 " fill-opacity="1" fill-rule="nonzero"/><path fill="#a6a6a6" d="M 230.636719 80.621094 C 230.792969 75.367188 230.691406 70.160156 230.691406 64.902344 C 230.691406 64.597656 230.691406 64.292969 230.691406 63.984375 C 227.933594 63.984375 225.28125 63.984375 222.679688 63.984375 C 222.679688 71.179688 222.679688 78.375 222.679688 85.570312 L 230.332031 85.570312 C 230.484375 83.886719 230.585938 82.253906 230.636719 80.621094 Z M 230.636719 80.621094 " fill-opacity="1" fill-rule="nonzero"/><path fill="#a6a6a6" d="M 230.535156 85.777344 L 222.421875 85.777344 L 222.421875 63.679688 L 230.945312 63.679688 L 230.945312 64.851562 C 230.945312 66.433594 230.945312 68.015625 230.945312 69.648438 C 230.945312 73.222656 230.996094 76.949219 230.894531 80.621094 C 230.84375 82.457031 230.742188 84.089844 230.535156 85.570312 Z M 222.882812 85.265625 L 230.027344 85.265625 C 230.179688 83.835938 230.28125 82.304688 230.332031 80.621094 C 230.433594 77 230.382812 73.273438 230.382812 69.699219 C 230.382812 68.117188 230.382812 66.535156 230.382812 64.902344 L 230.382812 64.242188 L 222.882812 64.242188 Z M 222.882812 85.265625 " fill-opacity="1" fill-rule="nonzero"/><path fill="#a6a6a6" d="M 238.753906 101.390625 C 235.027344 101.390625 231.300781 101.390625 227.578125 101.390625 L 223.035156 101.390625 C 222.933594 101.390625 222.882812 101.390625 222.78125 101.339844 L 222.421875 101.289062 L 222.421875 85.265625 L 230.636719 85.265625 L 230.585938 85.570312 C 230.179688 89.09375 229.3125 92.105469 227.984375 94.707031 C 226.914062 96.796875 225.535156 98.636719 223.953125 100.167969 C 223.800781 100.320312 223.648438 100.472656 223.546875 100.625 L 223.496094 100.675781 L 223.546875 100.726562 C 230.332031 99.554688 235.433594 95.777344 239.210938 89.195312 L 239.570312 88.53125 L 239.671875 89.296875 C 239.671875 89.398438 239.722656 89.550781 239.722656 89.601562 C 239.773438 89.808594 239.773438 89.960938 239.773438 90.113281 C 239.773438 91.644531 239.773438 93.175781 239.773438 94.707031 C 239.773438 96.59375 239.773438 98.429688 239.773438 100.320312 C 239.773438 100.625 239.773438 100.933594 239.519531 101.1875 C 239.261719 101.289062 239.058594 101.390625 238.753906 101.390625 Z M 232.730469 100.828125 C 234.722656 100.828125 236.710938 100.828125 238.703125 100.828125 C 238.804688 100.828125 239.007812 100.828125 239.058594 100.726562 C 239.109375 100.675781 239.160156 100.472656 239.160156 100.269531 C 239.160156 98.378906 239.160156 96.542969 239.160156 94.65625 C 239.160156 93.125 239.160156 91.59375 239.160156 90.0625 C 239.160156 90.0625 239.160156 90.011719 239.160156 90.011719 C 235.640625 95.878906 230.996094 99.402344 224.972656 100.828125 L 227.578125 100.828125 C 229.3125 100.828125 231.046875 100.828125 232.730469 100.828125 Z M 222.882812 100.828125 C 222.882812 100.828125 222.933594 100.828125 222.933594 100.828125 L 222.882812 100.726562 Z M 222.882812 85.777344 L 222.882812 100.421875 L 223.085938 100.21875 C 223.238281 100.066406 223.390625 99.910156 223.546875 99.757812 C 225.078125 98.277344 226.402344 96.492188 227.476562 94.449219 C 228.75 91.949219 229.566406 89.144531 230.027344 85.777344 Z M 222.882812 85.777344 " fill-opacity="1" fill-rule="nonzero"/><path fill="#a6a6a6" d="M 180.167969 68.425781 C 180.066406 68.425781 179.964844 68.375 179.863281 68.375 C 178.535156 73.476562 177.210938 78.582031 175.882812 83.785156 L 184.199219 83.785156 C 182.824219 78.582031 181.496094 73.527344 180.167969 68.425781 Z M 180.015625 68.882812 L 183.84375 83.53125 L 176.1875 83.53125 Z M 180.015625 68.882812 " fill-opacity="1" fill-rule="nonzero"/><path fill="#a6a6a6" d="M 187.007812 63.933594 L 185.425781 63.933594 C 183.894531 63.933594 182.464844 63.933594 181.035156 63.984375 C 180.679688 63.984375 180.21875 64.394531 180.117188 64.75 C 179.097656 68.476562 178.128906 72.304688 177.15625 75.976562 L 174.605469 85.828125 L 175.78125 85.828125 L 175.882812 85.113281 C 175.933594 84.753906 176.035156 84.652344 176.394531 84.652344 C 178.585938 84.652344 180.933594 84.652344 183.640625 84.652344 C 184.046875 84.652344 184.199219 84.753906 184.300781 85.164062 L 184.457031 85.828125 L 192.773438 85.828125 Z M 175.882812 83.785156 C 177.210938 78.632812 178.535156 73.527344 179.863281 68.375 C 179.964844 68.375 180.066406 68.425781 180.167969 68.425781 C 181.496094 73.527344 182.824219 78.582031 184.148438 83.785156 Z M 175.882812 83.785156 " fill-opacity="1" fill-rule="nonzero"/><path fill="#a6a6a6" d="M 191.601562 101.136719 C 191.140625 101.136719 190.628906 101.136719 190.171875 101.136719 L 188.488281 101.136719 L 187.976562 99.195312 C 187.621094 97.820312 187.261719 96.492188 186.90625 95.113281 L 186.648438 94.144531 C 185.882812 91.289062 185.171875 88.429688 184.40625 85.570312 L 184.300781 85.265625 L 192.621094 85.265625 L 196.804688 101.035156 L 196.5 101.085938 C 196.398438 101.085938 196.292969 101.136719 196.242188 101.136719 C 196.089844 101.136719 195.988281 101.1875 195.886719 101.1875 C 194.507812 101.136719 193.027344 101.136719 191.601562 101.136719 Z M 188.84375 100.625 L 190.121094 100.625 C 192.058594 100.625 194 100.625 195.9375 100.625 C 195.988281 100.625 196.089844 100.625 196.191406 100.574219 L 192.261719 85.777344 L 184.964844 85.777344 C 185.679688 88.53125 186.394531 91.289062 187.109375 93.992188 L 187.363281 94.960938 C 187.722656 96.339844 188.078125 97.664062 188.4375 99.042969 Z M 188.84375 100.625 " fill-opacity="1" fill-rule="nonzero"/><path fill="#a6a6a6" d="M 177.515625 101.085938 L 170.574219 101.085938 L 174.707031 85.265625 L 175.832031 85.265625 L 175.78125 85.570312 C 175.472656 87.816406 175.167969 90.777344 175.574219 93.738281 C 175.933594 96.339844 176.496094 98.378906 177.3125 100.167969 C 177.363281 100.269531 177.414062 100.421875 177.414062 100.574219 C 177.414062 100.625 177.414062 100.726562 177.464844 100.777344 Z M 171.238281 100.574219 L 176.902344 100.574219 C 176.902344 100.523438 176.851562 100.421875 176.851562 100.371094 C 176.035156 98.535156 175.421875 96.441406 175.066406 93.789062 C 174.65625 90.878906 174.914062 88.019531 175.21875 85.777344 L 175.066406 85.777344 Z M 171.238281 100.574219 " fill-opacity="1" fill-rule="nonzero"/><path fill="#a6a6a6" d="M 265.800781 82.613281 C 265.800781 83.582031 265.800781 84.550781 265.695312 85.519531 L 265.695312 85.777344 L 256 85.777344 L 256 85.519531 C 256.050781 84.5 256.050781 83.480469 256.050781 82.457031 C 256.050781 72.8125 254.570312 66.078125 253.296875 66.078125 C 252.019531 66.078125 250.539062 72.8125 250.539062 82.457031 C 250.539062 83.480469 250.539062 84.5 250.589844 85.519531 L 250.589844 85.777344 L 240.945312 85.777344 L 240.945312 85.519531 C 240.691406 83.019531 240.792969 80.417969 241.152344 77.816406 C 241.761719 73.527344 243.191406 70.109375 245.488281 67.355469 C 247.324219 65.261719 249.828125 63.984375 252.53125 63.78125 C 255.234375 63.578125 257.890625 64.496094 259.980469 66.28125 C 262.328125 68.324219 263.960938 71.128906 264.777344 74.601562 C 265.441406 77.304688 265.800781 80.007812 265.800781 82.613281 Z M 265.800781 82.613281 " fill-opacity="1" fill-rule="nonzero"/><path fill="#a6a6a6" d="M 253.195312 101.542969 C 250.335938 101.542969 247.683594 100.320312 245.589844 97.972656 C 243.5 95.625 242.171875 92.714844 241.355469 88.941406 C 241.152344 87.867188 240.945312 86.746094 240.84375 85.570312 L 240.792969 85.316406 L 250.488281 85.316406 L 250.488281 85.570312 C 250.746094 93.789062 252.121094 98.839844 253.195312 98.839844 C 254.265625 98.839844 255.59375 93.789062 255.898438 85.570312 L 255.898438 85.316406 L 265.644531 85.316406 L 265.644531 85.570312 C 265.339844 89.449219 264.269531 92.867188 262.53125 95.777344 C 260.949219 98.429688 259.011719 100.117188 256.664062 100.984375 C 255.542969 101.339844 254.367188 101.542969 253.195312 101.542969 Z M 241.457031 85.777344 C 241.558594 86.847656 241.710938 87.867188 241.917969 88.835938 C 242.683594 92.5625 244.007812 95.371094 246 97.664062 C 248.753906 100.828125 252.683594 101.851562 256.5625 100.472656 C 258.808594 99.65625 260.644531 98.023438 262.175781 95.472656 C 263.859375 92.714844 264.828125 89.449219 265.1875 85.777344 L 256.511719 85.777344 C 256.257812 92.5625 255.183594 99.300781 253.296875 99.300781 C 251.410156 99.300781 250.335938 92.5625 250.082031 85.777344 Z M 241.457031 85.777344 " fill-opacity="1" fill-rule="nonzero"/><path fill="#a6a6a6" d="M 84.894531 116.957031 C 84.691406 116.957031 84.484375 116.957031 84.332031 116.957031 C 80.964844 116.800781 78.363281 116.140625 76.066406 114.8125 C 75.707031 114.609375 75.300781 114.097656 75.300781 113.691406 C 75.25 110.730469 75.25 107.769531 75.25 104.65625 L 75.25 101.289062 L 75.707031 102.105469 C 76.015625 102.667969 76.320312 103.175781 76.628906 103.6875 C 77.238281 104.808594 77.851562 105.832031 78.515625 106.800781 C 80.914062 110.476562 83.210938 112.769531 85.914062 114.199219 C 86.679688 114.609375 87.648438 114.863281 88.722656 114.964844 C 89.742188 115.066406 90.558594 114.457031 90.761719 113.332031 C 91.171875 111.34375 90.660156 109.503906 89.332031 107.972656 C 87.804688 106.1875 85.964844 104.554688 84.382812 103.175781 C 83.925781 102.769531 83.414062 102.359375 82.902344 101.902344 L 81.933594 101.085938 L 94.183594 101.085938 L 94.234375 101.238281 C 95.867188 105.117188 95.558594 108.84375 93.3125 112.3125 C 91.476562 115.425781 88.621094 116.957031 84.894531 116.957031 Z M 75.757812 103.125 L 75.757812 104.605469 C 75.757812 107.71875 75.757812 110.679688 75.808594 113.640625 C 75.808594 113.84375 76.066406 114.148438 76.320312 114.300781 C 78.515625 115.578125 81.066406 116.242188 84.332031 116.394531 C 86.222656 116.496094 87.90625 116.140625 89.332031 115.425781 C 89.128906 115.425781 88.925781 115.476562 88.722656 115.425781 C 87.546875 115.324219 86.527344 115.015625 85.710938 114.558594 C 82.085938 112.617188 79.738281 109.503906 78.105469 106.953125 C 77.445312 105.933594 76.832031 104.914062 76.21875 103.789062 C 76.066406 103.636719 75.914062 103.382812 75.757812 103.125 Z M 83.414062 101.644531 C 83.875 102.054688 84.332031 102.410156 84.742188 102.820312 C 86.324219 104.25 88.160156 105.882812 89.742188 107.667969 C 91.171875 109.300781 91.679688 111.292969 91.273438 113.433594 C 91.171875 113.84375 91.070312 114.199219 90.863281 114.457031 C 91.679688 113.792969 92.34375 113.027344 92.957031 112.058594 C 95.050781 108.789062 95.355469 105.269531 93.875 101.59375 L 83.414062 101.59375 Z M 83.414062 101.644531 " fill-opacity="1" fill-rule="nonzero"/><path fill="#a6a6a6" d="M 133.933594 116.957031 C 131.078125 116.957031 128.421875 115.730469 126.332031 113.382812 C 124.238281 111.035156 122.914062 108.128906 122.09375 104.351562 C 121.890625 103.433594 121.738281 102.464844 121.636719 101.441406 L 121.585938 101.136719 L 131.230469 101.136719 L 131.230469 101.390625 C 131.535156 109.402344 132.863281 114.199219 133.933594 114.199219 C 135.007812 114.199219 136.28125 109.402344 136.640625 101.390625 L 136.640625 101.136719 L 146.335938 101.136719 L 146.285156 101.390625 C 145.925781 105.117188 144.957031 108.332031 143.273438 111.085938 C 141.691406 113.742188 139.753906 115.425781 137.40625 116.292969 C 136.230469 116.75 135.058594 116.957031 133.933594 116.957031 Z M 126.6875 113.027344 C 129.445312 116.191406 133.375 117.210938 137.25 115.832031 C 139.496094 115.015625 141.335938 113.382812 142.867188 110.832031 C 144.445312 108.179688 145.417969 105.167969 145.824219 101.59375 L 137.199219 101.59375 C 136.945312 107.667969 135.976562 114.660156 134.035156 114.660156 C 132.097656 114.660156 131.128906 107.667969 130.871094 101.59375 L 122.199219 101.59375 C 122.300781 102.464844 122.453125 103.332031 122.605469 104.148438 C 123.371094 107.921875 124.699219 110.730469 126.6875 113.027344 Z M 126.6875 113.027344 " fill-opacity="1" fill-rule="nonzero"/><path fill="#a6a6a6" d="M 116.636719 116.699219 C 116.175781 116.699219 115.664062 116.699219 115.207031 116.699219 L 113.523438 116.699219 L 112.960938 114.609375 C 112.605469 113.28125 112.246094 112.003906 111.941406 110.679688 L 111.839844 110.320312 C 111.074219 107.363281 110.308594 104.453125 109.542969 101.492188 L 109.441406 101.1875 L 117.757812 101.1875 L 121.890625 116.648438 L 121.585938 116.699219 C 121.484375 116.699219 121.382812 116.75 121.332031 116.75 C 121.175781 116.75 121.074219 116.800781 120.972656 116.800781 C 119.542969 116.699219 118.113281 116.699219 116.636719 116.699219 Z M 113.929688 116.191406 L 115.207031 116.191406 C 117.144531 116.191406 119.085938 116.191406 121.023438 116.191406 C 121.074219 116.191406 121.175781 116.191406 121.277344 116.140625 L 117.402344 101.644531 L 110.101562 101.644531 C 110.816406 104.503906 111.582031 107.3125 112.347656 110.167969 L 112.449219 110.527344 C 112.808594 111.851562 113.113281 113.128906 113.472656 114.457031 Z M 113.929688 116.191406 " fill-opacity="1" fill-rule="nonzero"/><path fill="#a6a6a6" d="M 102.601562 116.648438 L 95.660156 116.648438 L 99.691406 101.136719 L 100.867188 101.136719 L 100.816406 101.441406 C 100.507812 103.585938 100.253906 106.390625 100.664062 109.300781 C 101.019531 111.902344 101.582031 113.945312 102.398438 115.730469 C 102.449219 115.832031 102.5 115.984375 102.5 116.140625 C 102.5 116.191406 102.5 116.292969 102.550781 116.34375 Z M 96.273438 116.140625 L 101.9375 116.140625 C 101.9375 116.089844 101.886719 115.984375 101.886719 115.933594 C 101.070312 114.097656 100.457031 112.003906 100.101562 109.351562 C 99.691406 106.546875 99.949219 103.789062 100.253906 101.644531 L 100.050781 101.644531 Z M 96.273438 116.140625 " fill-opacity="1" fill-rule="nonzero"/><path fill="#a6a6a6" d="M 133.984375 114.710938 C 131.996094 114.710938 131.027344 107.566406 130.769531 101.441406 L 130.769531 101.1875 L 137.199219 101.1875 L 137.199219 101.441406 C 136.945312 107.515625 135.925781 114.710938 133.984375 114.710938 Z M 131.28125 101.644531 C 131.636719 109.503906 132.914062 114.199219 133.933594 114.199219 C 134.957031 114.199219 136.28125 109.503906 136.589844 101.644531 Z M 131.28125 101.644531 " fill-opacity="1" fill-rule="nonzero"/><path fill="#a6a6a6" d="M 133.933594 116.957031 C 131.078125 116.957031 128.421875 115.730469 126.332031 113.382812 C 124.238281 111.035156 122.914062 108.128906 122.09375 104.351562 C 121.890625 103.433594 121.738281 102.464844 121.636719 101.441406 L 121.585938 101.136719 L 131.230469 101.136719 L 131.230469 101.390625 C 131.535156 109.402344 132.863281 114.199219 133.933594 114.199219 C 135.007812 114.199219 136.28125 109.402344 136.640625 101.390625 L 136.640625 101.136719 L 146.335938 101.136719 L 146.285156 101.390625 C 145.925781 105.066406 144.90625 108.332031 143.222656 111.085938 C 141.640625 113.742188 139.703125 115.425781 137.355469 116.292969 C 136.230469 116.75 135.058594 116.957031 133.933594 116.957031 Z M 126.6875 113.027344 C 129.445312 116.191406 133.375 117.210938 137.25 115.832031 C 139.496094 115.015625 141.335938 113.382812 142.867188 110.832031 C 144.445312 108.179688 145.46875 105.117188 145.824219 101.59375 L 137.148438 101.59375 C 136.894531 107.667969 135.925781 114.660156 133.984375 114.660156 C 132.046875 114.660156 131.078125 107.667969 130.820312 101.59375 L 122.199219 101.59375 C 122.300781 102.464844 122.453125 103.332031 122.605469 104.148438 C 123.371094 107.921875 124.699219 110.730469 126.6875 113.027344 Z M 126.6875 113.027344 " fill-opacity="1" fill-rule="nonzero"/><path fill="#a6a6a6" d="M 84.894531 116.957031 C 84.691406 116.957031 84.484375 116.957031 84.332031 116.957031 C 80.964844 116.800781 78.363281 116.140625 76.066406 114.8125 C 75.707031 114.609375 75.300781 114.097656 75.300781 113.691406 C 75.25 110.730469 75.25 107.769531 75.25 104.65625 L 75.25 101.289062 L 75.707031 102.105469 C 76.015625 102.667969 76.320312 103.175781 76.628906 103.6875 C 77.238281 104.808594 77.851562 105.832031 78.515625 106.800781 C 80.914062 110.476562 83.210938 112.769531 85.914062 114.199219 C 86.679688 114.609375 87.648438 114.863281 88.722656 114.964844 C 89.742188 115.066406 90.558594 114.457031 90.761719 113.332031 C 91.171875 111.34375 90.660156 109.503906 89.332031 107.972656 C 87.804688 106.1875 85.964844 104.554688 84.382812 103.175781 C 83.925781 102.769531 83.414062 102.359375 82.902344 101.902344 L 81.933594 101.085938 L 94.183594 101.085938 L 94.234375 101.238281 C 95.867188 105.117188 95.558594 108.84375 93.3125 112.3125 C 91.476562 115.425781 88.621094 116.957031 84.894531 116.957031 Z M 75.757812 103.125 L 75.757812 104.605469 C 75.757812 107.71875 75.757812 110.679688 75.808594 113.640625 C 75.808594 113.84375 76.066406 114.148438 76.320312 114.300781 C 78.515625 115.578125 81.066406 116.242188 84.332031 116.394531 C 86.222656 116.496094 87.90625 116.140625 89.332031 115.425781 C 89.128906 115.476562 88.925781 115.476562 88.722656 115.425781 C 87.546875 115.324219 86.527344 115.015625 85.710938 114.558594 C 82.085938 112.617188 79.738281 109.503906 78.105469 106.953125 C 77.445312 105.933594 76.832031 104.914062 76.21875 103.789062 C 76.066406 103.636719 75.914062 103.382812 75.757812 103.125 Z M 83.414062 101.644531 C 83.875 102.054688 84.332031 102.410156 84.742188 102.820312 C 86.324219 104.25 88.160156 105.882812 89.742188 107.667969 C 91.171875 109.300781 91.679688 111.292969 91.273438 113.433594 C 91.171875 113.84375 91.070312 114.199219 90.863281 114.457031 C 91.679688 113.792969 92.34375 113.027344 92.957031 112.058594 C 95.050781 108.789062 95.355469 105.269531 93.875 101.59375 L 83.414062 101.59375 Z M 83.414062 101.644531 " fill-opacity="1" fill-rule="nonzero"/><path fill="#a6a6a6" d="M 116.636719 116.699219 C 116.175781 116.699219 115.664062 116.699219 115.207031 116.699219 L 113.523438 116.699219 L 112.960938 114.609375 C 112.605469 113.28125 112.246094 112.003906 111.941406 110.679688 L 111.839844 110.320312 C 111.074219 107.363281 110.308594 104.453125 109.542969 101.492188 L 109.441406 101.1875 L 117.757812 101.1875 L 121.890625 116.648438 L 121.585938 116.699219 C 121.484375 116.699219 121.382812 116.75 121.332031 116.75 C 121.175781 116.75 121.074219 116.800781 120.972656 116.800781 C 119.542969 116.699219 118.113281 116.699219 116.636719 116.699219 Z M 113.929688 116.191406 L 115.207031 116.191406 C 117.144531 116.191406 119.085938 116.191406 121.023438 116.191406 C 121.074219 116.191406 121.175781 116.191406 121.277344 116.140625 L 117.402344 101.644531 L 110.101562 101.644531 C 110.816406 104.503906 111.582031 107.3125 112.347656 110.167969 L 112.449219 110.527344 C 112.808594 111.851562 113.113281 113.128906 113.472656 114.457031 Z M 113.929688 116.191406 " fill-opacity="1" fill-rule="nonzero"/><path fill="#a6a6a6" d="M 102.601562 116.648438 L 95.660156 116.648438 L 99.691406 101.136719 L 100.867188 101.136719 L 100.816406 101.441406 C 100.507812 103.585938 100.253906 106.390625 100.664062 109.300781 C 101.019531 111.902344 101.582031 113.945312 102.398438 115.730469 C 102.449219 115.832031 102.5 115.984375 102.5 116.140625 C 102.5 116.191406 102.5 116.292969 102.550781 116.34375 Z M 96.273438 116.140625 L 101.9375 116.140625 C 101.9375 116.089844 101.886719 115.984375 101.886719 115.933594 C 101.070312 114.097656 100.457031 112.003906 100.101562 109.351562 C 99.691406 106.546875 99.949219 103.789062 100.253906 101.644531 L 100.050781 101.644531 Z M 96.273438 116.140625 " fill-opacity="1" fill-rule="nonzero"/><path fill="#a6a6a6" d="M 150.570312 101.136719 L 150.570312 117.210938 L 152.765625 117.210938 C 154.246094 117.210938 155.675781 117.210938 157.152344 117.210938 C 157.410156 117.210938 157.664062 117.210938 157.867188 117.210938 C 157.96875 117.210938 158.074219 117.210938 158.175781 117.210938 C 158.53125 117.210938 158.734375 117.160156 158.890625 117.007812 C 158.992188 116.90625 159.042969 116.699219 159.09375 116.496094 L 159.09375 101.136719 Z M 158.632812 102.359375 L 158.632812 102.464844 C 158.632812 104.300781 158.632812 106.136719 158.632812 107.921875 C 158.632812 110.371094 158.632812 112.820312 158.632812 115.273438 C 158.632812 115.476562 158.632812 115.679688 158.632812 115.832031 C 158.632812 116.191406 158.632812 116.546875 158.582031 116.648438 C 158.53125 116.699219 158.226562 116.699219 157.917969 116.699219 C 157.765625 116.699219 157.5625 116.699219 157.359375 116.699219 C 157.308594 116.699219 157.257812 116.699219 157.203125 116.699219 C 155.777344 116.699219 154.296875 116.699219 152.816406 116.699219 L 151.132812 116.699219 L 151.132812 101.644531 L 158.632812 101.644531 C 158.582031 101.953125 158.632812 102.15625 158.632812 102.359375 Z M 158.632812 102.359375 " fill-opacity="1" fill-rule="nonzero"/><path fill="#a6a6a6" d="M 208.949219 117.515625 C 207.367188 117.515625 205.785156 117.261719 204.304688 116.800781 C 201.039062 115.730469 199.203125 113.382812 198.691406 109.503906 C 198.488281 107.921875 198.488281 106.339844 198.488281 104.707031 L 198.488281 101.1875 L 207.0625 101.1875 L 207.0625 101.441406 C 207.0625 103.484375 207.0625 105.523438 207.113281 107.566406 C 207.113281 109.710938 207.46875 111.34375 208.183594 112.667969 C 209.207031 114.609375 210.890625 115.476562 213.339844 115.21875 C 215.277344 115.015625 216.757812 113.691406 217.21875 111.75 C 217.574219 110.167969 217.828125 108.636719 217.828125 107.15625 C 217.882812 105.167969 217.933594 103.226562 217.933594 101.390625 L 217.933594 101.136719 L 218.851562 101.136719 L 218.851562 103.382812 C 218.851562 104.65625 218.851562 105.933594 218.851562 107.207031 C 218.851562 108.636719 218.699219 110.066406 218.441406 111.394531 C 217.828125 114.507812 215.789062 116.496094 212.371094 117.160156 C 211.144531 117.414062 210.023438 117.515625 208.949219 117.515625 Z M 199 101.644531 L 199 104.65625 C 199 106.289062 199 107.871094 199.203125 109.402344 C 199.664062 113.078125 201.398438 115.324219 204.460938 116.292969 C 206.910156 117.058594 209.511719 117.210938 212.164062 116.648438 C 215.328125 115.984375 217.21875 114.199219 217.828125 111.292969 C 217.984375 110.527344 218.085938 109.761719 218.136719 108.996094 C 218.035156 109.964844 217.828125 110.882812 217.625 111.851562 C 217.117188 113.996094 215.429688 115.476562 213.339844 115.679688 C 210.683594 115.933594 208.847656 115.015625 207.726562 112.875 C 206.703125 110.984375 206.601562 108.894531 206.601562 107.515625 C 206.601562 105.574219 206.601562 103.585938 206.550781 101.644531 Z M 199 101.644531 " fill-opacity="1" fill-rule="nonzero"/><path fill="#a6a6a6" d="M 238.804688 117.261719 C 235.078125 117.261719 231.402344 117.261719 227.679688 117.261719 L 223.085938 117.261719 C 222.984375 117.261719 222.933594 117.261719 222.832031 117.210938 L 222.472656 117.160156 L 222.472656 101.136719 L 230.691406 101.136719 L 230.636719 101.441406 C 230.230469 104.964844 229.363281 107.972656 228.035156 110.578125 C 226.964844 112.667969 225.585938 114.507812 224.003906 116.039062 C 223.851562 116.191406 223.699219 116.34375 223.597656 116.496094 L 223.546875 116.546875 L 223.597656 116.597656 C 230.382812 115.425781 235.488281 111.648438 239.261719 105.066406 L 239.621094 104.402344 L 239.722656 105.167969 C 239.722656 105.269531 239.773438 105.421875 239.773438 105.472656 C 239.824219 105.679688 239.824219 105.832031 239.824219 105.984375 C 239.824219 107.566406 239.824219 109.148438 239.824219 110.679688 C 239.824219 112.515625 239.824219 114.351562 239.824219 116.191406 C 239.824219 116.496094 239.824219 116.800781 239.570312 117.058594 C 239.363281 117.160156 239.109375 117.261719 238.804688 117.261719 Z M 232.882812 116.75 C 234.875 116.75 236.8125 116.75 238.804688 116.75 C 238.90625 116.75 239.109375 116.75 239.160156 116.648438 C 239.210938 116.597656 239.261719 116.394531 239.261719 116.191406 C 239.261719 114.351562 239.261719 112.515625 239.261719 110.679688 C 239.261719 109.097656 239.261719 107.515625 239.261719 105.984375 C 239.261719 105.984375 239.261719 105.933594 239.261719 105.933594 C 235.742188 111.800781 231.097656 115.324219 225.078125 116.75 L 227.679688 116.75 C 229.414062 116.75 231.148438 116.75 232.882812 116.75 Z M 222.933594 116.699219 C 222.933594 116.699219 222.984375 116.699219 222.984375 116.699219 L 222.933594 116.597656 Z M 222.933594 101.644531 L 222.933594 116.292969 L 223.136719 116.089844 C 223.289062 115.933594 223.441406 115.78125 223.597656 115.628906 C 225.128906 114.148438 226.453125 112.363281 227.527344 110.320312 C 228.800781 107.820312 229.617188 105.015625 230.078125 101.644531 Z M 222.933594 101.644531 " fill-opacity="1" fill-rule="nonzero"/><path fill="#a6a6a6" d="M 191.652344 117.007812 C 191.191406 117.007812 190.679688 117.007812 190.222656 117.007812 L 188.539062 117.007812 L 188.027344 115.015625 C 187.671875 113.640625 187.3125 112.3125 186.957031 110.984375 L 186.804688 110.371094 C 186.039062 107.414062 185.273438 104.453125 184.507812 101.492188 L 184.40625 101.1875 L 192.722656 101.1875 L 196.90625 116.957031 L 196.601562 117.007812 C 196.5 117.007812 196.398438 117.058594 196.347656 117.058594 C 196.191406 117.058594 196.089844 117.109375 195.988281 117.109375 C 194.558594 117.007812 193.128906 117.007812 191.652344 117.007812 Z M 188.945312 116.496094 L 190.222656 116.496094 C 192.160156 116.496094 194.101562 116.496094 196.039062 116.496094 C 196.140625 116.496094 196.191406 116.496094 196.292969 116.445312 L 192.367188 101.644531 L 185.066406 101.644531 C 185.78125 104.503906 186.546875 107.363281 187.3125 110.21875 L 187.464844 110.832031 C 187.824219 112.160156 188.179688 113.535156 188.539062 114.863281 Z M 188.945312 116.496094 " fill-opacity="1" fill-rule="nonzero"/><path fill="#a6a6a6" d="M 177.566406 116.957031 L 170.625 116.957031 L 174.757812 101.136719 L 175.882812 101.136719 L 175.832031 101.441406 C 175.523438 103.6875 175.21875 106.648438 175.628906 109.605469 C 175.984375 112.210938 176.546875 114.25 177.363281 116.039062 C 177.414062 116.140625 177.464844 116.292969 177.464844 116.445312 C 177.464844 116.496094 177.464844 116.597656 177.515625 116.648438 Z M 171.289062 116.445312 L 176.953125 116.445312 C 176.953125 116.394531 176.902344 116.292969 176.902344 116.242188 C 176.085938 114.402344 175.472656 112.3125 175.117188 109.660156 C 174.707031 106.75 174.964844 103.890625 175.269531 101.644531 L 175.117188 101.644531 Z M 171.289062 116.445312 " fill-opacity="1" fill-rule="nonzero"/><path fill="#a6a6a6" d="M 253.296875 117.414062 C 250.4375 117.414062 247.785156 116.191406 245.691406 113.84375 C 243.601562 111.496094 242.273438 108.585938 241.457031 104.808594 C 241.253906 103.738281 241.050781 102.617188 240.945312 101.441406 L 240.894531 101.1875 L 250.589844 101.1875 L 250.589844 101.441406 C 250.847656 109.660156 252.226562 114.710938 253.296875 114.710938 C 254.367188 114.710938 255.695312 109.660156 256 101.441406 L 256 101.1875 L 265.746094 101.1875 L 265.746094 101.441406 C 265.441406 105.320312 264.371094 108.738281 262.636719 111.648438 C 261.054688 114.300781 259.113281 115.984375 256.765625 116.855469 C 255.59375 117.210938 254.417969 117.414062 253.296875 117.414062 Z M 246.050781 113.535156 C 248.804688 116.699219 252.734375 117.722656 256.613281 116.34375 C 258.859375 115.527344 260.695312 113.894531 262.226562 111.34375 C 263.910156 108.585938 264.878906 105.320312 265.238281 101.644531 L 256.5625 101.644531 C 256.308594 108.433594 255.234375 115.167969 253.347656 115.167969 C 251.460938 115.167969 250.386719 108.433594 250.132812 101.644531 L 241.507812 101.644531 C 241.609375 102.71875 241.761719 103.738281 241.96875 104.707031 C 242.734375 108.433594 244.058594 111.242188 246.050781 113.535156 Z M 246.050781 113.535156 " fill-opacity="1" fill-rule="nonzero"/><path fill="#a6a6a6" d="M 84.894531 132.828125 C 84.691406 132.828125 84.484375 132.828125 84.332031 132.828125 C 80.964844 132.671875 78.363281 132.011719 76.066406 130.683594 C 75.707031 130.480469 75.300781 129.96875 75.300781 129.558594 C 75.25 126.601562 75.25 123.640625 75.25 120.527344 L 75.25 117.160156 L 75.707031 117.976562 C 76.015625 118.539062 76.320312 119.046875 76.628906 119.558594 C 77.238281 120.679688 77.851562 121.703125 78.515625 122.671875 C 80.914062 126.34375 83.210938 128.640625 85.914062 130.070312 C 86.679688 130.480469 87.597656 130.734375 88.722656 130.835938 C 89.742188 130.9375 90.558594 130.324219 90.761719 129.203125 C 91.171875 127.214844 90.660156 125.375 89.332031 123.84375 C 87.804688 122.058594 85.964844 120.425781 84.382812 119.046875 C 83.925781 118.640625 83.414062 118.179688 82.902344 117.773438 L 81.984375 116.957031 L 94.234375 116.957031 L 94.285156 117.109375 C 95.917969 120.988281 95.609375 124.710938 93.363281 128.183594 C 91.476562 131.296875 88.621094 132.828125 84.894531 132.828125 Z M 75.757812 118.996094 L 75.757812 120.476562 C 75.757812 123.589844 75.757812 126.550781 75.808594 129.507812 C 75.808594 129.714844 76.066406 130.019531 76.320312 130.171875 C 78.515625 131.449219 81.066406 132.113281 84.332031 132.265625 C 86.222656 132.367188 87.90625 132.011719 89.332031 131.296875 C 89.128906 131.296875 88.925781 131.347656 88.722656 131.296875 C 87.546875 131.140625 86.527344 130.886719 85.710938 130.429688 C 82.085938 128.488281 79.738281 125.375 78.105469 122.824219 C 77.445312 121.804688 76.832031 120.78125 76.21875 119.660156 C 76.066406 119.507812 75.914062 119.253906 75.757812 118.996094 Z M 83.414062 117.515625 C 83.875 117.925781 84.332031 118.28125 84.742188 118.691406 C 86.324219 120.121094 88.160156 121.753906 89.742188 123.539062 C 91.171875 125.171875 91.679688 127.160156 91.273438 129.304688 C 91.171875 129.714844 91.070312 130.070312 90.863281 130.324219 C 91.679688 129.664062 92.34375 128.898438 92.957031 127.925781 C 95.050781 124.660156 95.355469 121.140625 93.875 117.464844 L 83.414062 117.464844 Z M 83.414062 117.515625 " fill-opacity="1" fill-rule="nonzero"/><path fill="#a6a6a6" d="M 133.933594 132.828125 C 131.078125 132.828125 128.421875 131.601562 126.332031 129.253906 C 124.238281 126.90625 122.914062 123.996094 122.09375 120.222656 C 121.890625 119.304688 121.738281 118.332031 121.636719 117.3125 L 121.585938 117.007812 L 131.230469 117.007812 L 131.230469 117.261719 C 131.535156 125.273438 132.863281 130.070312 133.933594 130.070312 C 135.007812 130.070312 136.28125 125.273438 136.640625 117.261719 L 136.640625 117.007812 L 146.335938 117.007812 L 146.285156 117.261719 C 145.925781 120.988281 144.957031 124.203125 143.273438 126.957031 C 141.691406 129.613281 139.753906 131.296875 137.40625 132.164062 C 136.230469 132.621094 135.058594 132.828125 133.933594 132.828125 Z M 126.6875 128.898438 C 129.445312 132.011719 133.375 133.082031 137.25 131.703125 C 139.496094 130.886719 141.335938 129.253906 142.867188 126.703125 C 144.445312 124.050781 145.417969 121.039062 145.824219 117.464844 L 137.199219 117.464844 C 136.945312 123.539062 135.976562 130.53125 134.035156 130.53125 C 132.097656 130.53125 131.128906 123.539062 130.871094 117.464844 L 122.199219 117.464844 C 122.300781 118.332031 122.453125 119.199219 122.605469 120.015625 C 123.371094 123.84375 124.699219 126.601562 126.6875 128.898438 Z M 126.6875 128.898438 " fill-opacity="1" fill-rule="nonzero"/><path fill="#a6a6a6" d="M 115.5625 132.570312 C 115.257812 132.570312 114.953125 132.570312 114.644531 132.570312 L 113.523438 132.570312 L 112.960938 130.480469 C 112.605469 129.152344 112.246094 127.875 111.941406 126.550781 L 111.839844 126.089844 C 111.074219 123.179688 110.308594 120.273438 109.542969 117.363281 L 109.441406 117.058594 L 117.757812 117.058594 L 121.890625 132.519531 L 121.636719 132.519531 C 121.535156 132.519531 121.433594 132.570312 121.382812 132.570312 C 121.226562 132.570312 121.125 132.621094 121.023438 132.621094 C 119.1875 132.570312 117.402344 132.570312 115.5625 132.570312 Z M 113.929688 132.0625 L 114.644531 132.0625 C 116.789062 132.0625 118.878906 132.0625 120.972656 132.0625 C 121.023438 132.0625 121.125 132.0625 121.226562 132.011719 L 117.351562 117.515625 L 110.101562 117.515625 C 110.816406 120.324219 111.582031 123.128906 112.296875 125.9375 L 112.449219 126.394531 C 112.808594 127.722656 113.113281 129 113.472656 130.324219 Z M 113.929688 132.0625 " fill-opacity="1" fill-rule="nonzero"/><path fill="#a6a6a6" d="M 102.601562 132.519531 L 95.660156 132.519531 L 99.691406 117.007812 L 100.867188 117.007812 L 100.816406 117.3125 C 100.507812 119.457031 100.253906 122.261719 100.664062 125.171875 C 101.019531 127.773438 101.582031 129.816406 102.398438 131.601562 C 102.449219 131.703125 102.5 131.855469 102.5 132.011719 C 102.5 132.0625 102.5 132.164062 102.550781 132.214844 Z M 96.273438 132.011719 L 101.9375 132.011719 C 101.9375 131.957031 101.886719 131.855469 101.886719 131.804688 C 101.070312 129.96875 100.457031 127.875 100.101562 125.222656 C 99.691406 122.417969 99.949219 119.660156 100.253906 117.515625 L 100.050781 117.515625 Z M 96.273438 132.011719 " fill-opacity="1" fill-rule="nonzero"/><path fill="#a6a6a6" d="M 133.984375 130.582031 C 131.996094 130.582031 131.027344 123.4375 130.769531 117.3125 L 130.769531 117.058594 L 137.199219 117.058594 L 137.199219 117.3125 C 136.945312 123.4375 135.925781 130.582031 133.984375 130.582031 Z M 131.28125 117.515625 C 131.636719 125.375 132.914062 130.070312 133.933594 130.070312 C 134.957031 130.070312 136.28125 125.375 136.589844 117.515625 Z M 131.28125 117.515625 " fill-opacity="1" fill-rule="nonzero"/><path fill="#a6a6a6" d="M 133.933594 132.828125 C 131.078125 132.828125 128.421875 131.601562 126.332031 129.253906 C 124.238281 126.90625 122.914062 123.996094 122.09375 120.222656 C 121.890625 119.304688 121.738281 118.332031 121.636719 117.3125 L 121.585938 117.007812 L 131.230469 117.007812 L 131.230469 117.261719 C 131.535156 125.273438 132.863281 130.070312 133.933594 130.070312 C 135.007812 130.070312 136.28125 125.273438 136.640625 117.261719 L 136.640625 117.007812 L 146.335938 117.007812 L 146.285156 117.261719 C 145.925781 120.9375 144.90625 124.203125 143.222656 126.957031 C 141.640625 129.613281 139.703125 131.296875 137.355469 132.164062 C 136.230469 132.621094 135.058594 132.828125 133.933594 132.828125 Z M 126.6875 128.898438 C 129.445312 132.011719 133.375 133.082031 137.25 131.703125 C 139.496094 130.886719 141.335938 129.253906 142.867188 126.703125 C 144.445312 124.050781 145.46875 120.988281 145.824219 117.464844 L 137.148438 117.464844 C 136.894531 123.539062 135.925781 130.53125 133.984375 130.53125 C 132.046875 130.53125 131.078125 123.539062 130.820312 117.464844 L 122.199219 117.464844 C 122.300781 118.332031 122.453125 119.199219 122.605469 120.015625 C 123.371094 123.84375 124.699219 126.601562 126.6875 128.898438 Z M 126.6875 128.898438 " fill-opacity="1" fill-rule="nonzero"/><path fill="#a6a6a6" d="M 84.894531 132.828125 C 84.691406 132.828125 84.484375 132.828125 84.332031 132.828125 C 80.964844 132.671875 78.363281 132.011719 76.066406 130.683594 C 75.707031 130.480469 75.300781 129.96875 75.300781 129.558594 C 75.25 126.601562 75.25 123.640625 75.25 120.527344 L 75.25 117.160156 L 75.707031 117.976562 C 76.015625 118.539062 76.320312 119.046875 76.628906 119.558594 C 77.238281 120.679688 77.851562 121.703125 78.515625 122.671875 C 80.914062 126.34375 83.210938 128.640625 85.914062 130.070312 C 86.679688 130.480469 87.597656 130.734375 88.722656 130.835938 C 89.742188 130.9375 90.558594 130.324219 90.761719 129.203125 C 91.171875 127.214844 90.660156 125.375 89.332031 123.84375 C 87.804688 122.058594 85.964844 120.425781 84.382812 119.046875 C 83.925781 118.640625 83.414062 118.179688 82.902344 117.773438 L 81.984375 116.957031 L 94.234375 116.957031 L 94.285156 117.109375 C 95.917969 120.988281 95.609375 124.710938 93.363281 128.183594 C 91.476562 131.296875 88.621094 132.828125 84.894531 132.828125 Z M 75.757812 118.996094 L 75.757812 120.476562 C 75.757812 123.589844 75.757812 126.550781 75.808594 129.507812 C 75.808594 129.714844 76.066406 130.019531 76.320312 130.171875 C 78.515625 131.449219 81.066406 132.113281 84.332031 132.265625 C 86.222656 132.367188 87.90625 132.011719 89.332031 131.296875 C 89.128906 131.296875 88.925781 131.347656 88.722656 131.296875 C 87.546875 131.140625 86.527344 130.886719 85.710938 130.429688 C 82.085938 128.488281 79.738281 125.375 78.105469 122.824219 C 77.445312 121.804688 76.832031 120.78125 76.21875 119.660156 C 76.066406 119.507812 75.914062 119.253906 75.757812 118.996094 Z M 83.414062 117.515625 C 83.875 117.925781 84.332031 118.28125 84.742188 118.691406 C 86.324219 120.121094 88.160156 121.753906 89.742188 123.539062 C 91.171875 125.171875 91.679688 127.160156 91.273438 129.304688 C 91.171875 129.714844 91.070312 130.070312 90.863281 130.324219 C 91.679688 129.664062 92.34375 128.898438 92.957031 127.925781 C 95.050781 124.660156 95.355469 121.140625 93.875 117.464844 L 83.414062 117.464844 Z M 83.414062 117.515625 " fill-opacity="1" fill-rule="nonzero"/><path fill="#a6a6a6" d="M 115.5625 132.570312 C 115.257812 132.570312 114.953125 132.570312 114.644531 132.570312 L 113.523438 132.570312 L 112.960938 130.480469 C 112.605469 129.152344 112.246094 127.875 111.941406 126.550781 L 111.839844 126.089844 C 111.074219 123.179688 110.308594 120.273438 109.542969 117.363281 L 109.441406 117.058594 L 117.757812 117.058594 L 121.890625 132.519531 L 121.636719 132.519531 C 121.535156 132.519531 121.433594 132.570312 121.382812 132.570312 C 121.226562 132.570312 121.125 132.621094 121.023438 132.621094 C 119.1875 132.570312 117.402344 132.570312 115.5625 132.570312 Z M 113.929688 132.0625 L 114.644531 132.0625 C 116.789062 132.0625 118.878906 132.0625 120.972656 132.0625 C 121.023438 132.0625 121.125 132.0625 121.226562 132.011719 L 117.351562 117.515625 L 110.101562 117.515625 C 110.816406 120.324219 111.582031 123.128906 112.296875 125.9375 L 112.449219 126.394531 C 112.808594 127.722656 113.113281 129 113.472656 130.324219 Z M 113.929688 132.0625 " fill-opacity="1" fill-rule="nonzero"/><path fill="#a6a6a6" d="M 102.601562 132.519531 L 95.660156 132.519531 L 99.691406 117.007812 L 100.867188 117.007812 L 100.816406 117.3125 C 100.507812 119.457031 100.253906 122.261719 100.664062 125.171875 C 101.019531 127.773438 101.582031 129.816406 102.398438 131.601562 C 102.449219 131.703125 102.5 131.855469 102.5 132.011719 C 102.5 132.0625 102.5 132.164062 102.550781 132.214844 Z M 96.273438 132.011719 L 101.9375 132.011719 C 101.9375 131.957031 101.886719 131.855469 101.886719 131.804688 C 101.070312 129.96875 100.457031 127.875 100.101562 125.222656 C 99.691406 122.417969 99.949219 119.660156 100.253906 117.515625 L 100.050781 117.515625 Z M 96.273438 132.011719 " fill-opacity="1" fill-rule="nonzero"/><g clip-path="url(#5a10ceaccf)"><path fill="#a6a6a6" d="M 159.144531 119.507812 L 159.144531 117.007812 L 150.621094 117.007812 L 150.621094 133.082031 L 152.816406 133.082031 C 154.296875 133.082031 155.726562 133.082031 157.203125 133.082031 C 157.460938 133.082031 157.714844 133.082031 157.917969 133.082031 C 158.019531 133.082031 158.125 133.082031 158.226562 133.082031 C 158.582031 133.082031 158.785156 133.03125 158.941406 132.878906 C 159.144531 132.671875 159.144531 132.367188 159.144531 131.703125 C 159.144531 131.550781 159.144531 131.347656 159.144531 131.140625 C 159.144531 128.691406 159.144531 126.242188 159.144531 123.792969 C 159.144531 122.417969 159.144531 120.988281 159.144531 119.507812 Z M 158.632812 118.28125 L 158.632812 118.382812 C 158.632812 120.222656 158.632812 122.058594 158.632812 123.84375 C 158.632812 126.292969 158.632812 128.742188 158.632812 131.195312 C 158.632812 131.398438 158.632812 131.601562 158.632812 131.753906 C 158.632812 132.113281 158.632812 132.46875 158.582031 132.570312 C 158.53125 132.621094 158.226562 132.621094 157.917969 132.621094 C 157.765625 132.621094 157.5625 132.621094 157.359375 132.621094 C 157.308594 132.621094 157.257812 132.621094 157.203125 132.621094 C 155.777344 132.621094 154.296875 132.621094 152.816406 132.621094 L 151.132812 132.621094 L 151.132812 117.566406 L 158.632812 117.566406 C 158.632812 117.824219 158.632812 118.027344 158.632812 118.28125 Z M 158.632812 118.28125 " fill-opacity="1" fill-rule="nonzero"/></g><g clip-path="url(#e3daa515cd)"><path fill="#a6a6a6" d="M 208.949219 133.4375 C 207.367188 133.4375 205.785156 133.183594 204.304688 132.722656 C 201.039062 131.652344 199.203125 129.304688 198.691406 125.425781 C 198.488281 123.84375 198.488281 122.261719 198.488281 120.628906 L 198.488281 117.109375 L 207.0625 117.109375 L 207.0625 117.363281 C 207.0625 119.40625 207.0625 121.445312 207.113281 123.488281 C 207.113281 125.632812 207.46875 127.265625 208.183594 128.589844 C 209.207031 130.53125 210.890625 131.398438 213.339844 131.140625 C 215.277344 130.9375 216.757812 129.613281 217.21875 127.671875 C 217.574219 126.089844 217.828125 124.558594 217.828125 123.078125 C 217.882812 121.089844 217.933594 119.148438 217.933594 117.3125 L 217.933594 117.058594 L 218.851562 117.058594 L 218.851562 119.304688 C 218.851562 120.578125 218.851562 121.855469 218.851562 123.128906 C 218.851562 124.558594 218.699219 125.988281 218.441406 127.316406 C 217.828125 130.429688 215.789062 132.417969 212.371094 133.082031 C 211.144531 133.285156 210.023438 133.4375 208.949219 133.4375 Z M 199 117.515625 L 199 120.527344 C 199 122.160156 199 123.742188 199.203125 125.273438 C 199.664062 128.949219 201.398438 131.195312 204.460938 132.164062 C 206.910156 132.929688 209.511719 133.082031 212.164062 132.519531 C 215.328125 131.855469 217.21875 130.070312 217.828125 127.160156 C 217.984375 126.394531 218.085938 125.632812 218.136719 124.867188 C 218.035156 125.835938 217.828125 126.753906 217.625 127.722656 C 217.117188 129.867188 215.429688 131.347656 213.339844 131.550781 C 210.683594 131.804688 208.847656 130.886719 207.726562 128.742188 C 206.703125 126.855469 206.601562 124.761719 206.601562 123.386719 C 206.601562 121.445312 206.601562 119.457031 206.550781 117.515625 Z M 199 117.515625 " fill-opacity="1" fill-rule="nonzero"/></g><g clip-path="url(#fe3f5babb5)"><path fill="#a6a6a6" d="M 238.804688 133.132812 C 235.027344 133.132812 231.25 133.132812 227.476562 133.132812 L 223.085938 133.132812 C 222.984375 133.132812 222.933594 133.132812 222.832031 133.082031 L 222.472656 133.03125 L 222.472656 117.007812 L 230.691406 117.007812 L 230.636719 117.3125 C 230.230469 120.835938 229.363281 123.84375 228.035156 126.449219 C 226.964844 128.539062 225.585938 130.375 224.003906 131.90625 C 223.851562 132.0625 223.699219 132.214844 223.597656 132.367188 L 223.546875 132.417969 L 223.597656 132.46875 C 230.382812 131.296875 235.488281 127.519531 239.261719 120.9375 L 239.621094 120.273438 L 239.722656 121.039062 C 239.722656 121.140625 239.773438 121.292969 239.773438 121.34375 C 239.824219 121.546875 239.824219 121.703125 239.824219 121.855469 C 239.824219 123.4375 239.824219 125.019531 239.824219 126.550781 C 239.824219 128.386719 239.824219 130.222656 239.824219 132.0625 C 239.824219 132.367188 239.824219 132.671875 239.570312 132.929688 C 239.363281 133.082031 239.109375 133.132812 238.804688 133.132812 Z M 232.78125 132.621094 C 234.773438 132.621094 236.761719 132.621094 238.804688 132.621094 C 238.90625 132.621094 239.109375 132.621094 239.160156 132.519531 C 239.210938 132.46875 239.261719 132.265625 239.261719 132.0625 C 239.261719 130.222656 239.261719 128.386719 239.261719 126.550781 C 239.261719 124.96875 239.261719 123.386719 239.261719 121.855469 C 239.261719 121.855469 239.261719 121.804688 239.261719 121.804688 C 235.742188 127.671875 231.097656 131.195312 225.078125 132.621094 L 227.476562 132.621094 C 229.210938 132.621094 230.996094 132.621094 232.78125 132.621094 Z M 222.933594 132.621094 C 222.933594 132.621094 222.984375 132.621094 222.984375 132.621094 L 222.933594 132.519531 Z M 222.933594 117.515625 L 222.933594 132.164062 L 223.136719 131.957031 C 223.289062 131.804688 223.441406 131.652344 223.597656 131.5 C 225.128906 130.019531 226.453125 128.234375 227.527344 126.191406 C 228.800781 123.691406 229.617188 120.886719 230.078125 117.515625 Z M 222.933594 117.515625 " fill-opacity="1" fill-rule="nonzero"/></g><path fill="#a6a6a6" d="M 191.652344 132.878906 C 191.191406 132.878906 190.679688 132.878906 190.222656 132.878906 L 188.539062 132.878906 L 188.027344 130.886719 C 187.671875 129.507812 187.3125 128.183594 186.957031 126.855469 L 186.75 126.140625 C 185.988281 123.179688 185.222656 120.273438 184.457031 117.3125 L 184.351562 117.007812 L 192.671875 117.007812 L 196.855469 132.773438 L 196.550781 132.828125 C 196.449219 132.828125 196.347656 132.878906 196.292969 132.878906 C 196.140625 132.878906 196.039062 132.929688 195.9375 132.929688 C 194.558594 132.878906 193.128906 132.878906 191.652344 132.878906 Z M 188.945312 132.367188 L 190.222656 132.367188 C 192.160156 132.367188 194.101562 132.367188 196.039062 132.367188 C 196.140625 132.367188 196.191406 132.367188 196.292969 132.316406 L 192.367188 117.515625 L 185.066406 117.515625 C 185.78125 120.375 186.546875 123.179688 187.261719 126.039062 L 187.464844 126.753906 C 187.824219 128.082031 188.179688 129.457031 188.539062 130.785156 Z M 188.945312 132.367188 " fill-opacity="1" fill-rule="nonzero"/><path fill="#a6a6a6" d="M 177.566406 132.828125 L 170.625 132.828125 L 174.757812 117.007812 L 175.882812 117.007812 L 175.832031 117.3125 C 175.523438 119.558594 175.21875 122.519531 175.628906 125.476562 C 175.984375 128.082031 176.546875 130.121094 177.363281 131.90625 C 177.414062 132.011719 177.464844 132.164062 177.464844 132.316406 C 177.464844 132.367188 177.464844 132.46875 177.515625 132.519531 Z M 171.289062 132.316406 L 176.953125 132.316406 C 176.953125 132.265625 176.902344 132.164062 176.902344 132.113281 C 176.085938 130.273438 175.472656 128.183594 175.117188 125.527344 C 174.707031 122.621094 174.964844 119.761719 175.269531 117.515625 L 175.117188 117.515625 Z M 171.289062 132.316406 " fill-opacity="1" fill-rule="nonzero"/><g clip-path="url(#bdc055a2ee)"><path fill="#a6a6a6" d="M 253.296875 133.335938 C 250.4375 133.335938 247.785156 132.113281 245.691406 129.765625 C 243.601562 127.417969 242.273438 124.507812 241.457031 120.730469 C 241.253906 119.660156 241.050781 118.539062 240.945312 117.363281 L 240.894531 117.109375 L 250.589844 117.109375 L 250.589844 117.363281 C 250.847656 125.578125 252.226562 130.632812 253.296875 130.632812 C 254.367188 130.632812 255.695312 125.578125 256 117.363281 L 256 117.109375 L 265.746094 117.109375 L 265.746094 117.363281 C 265.441406 121.242188 264.371094 124.660156 262.636719 127.570312 C 261.054688 130.222656 259.113281 131.90625 256.765625 132.773438 C 255.59375 133.132812 254.417969 133.335938 253.296875 133.335938 Z M 246.050781 129.40625 C 248.804688 132.519531 252.734375 133.59375 256.613281 132.214844 C 258.859375 131.398438 260.695312 129.765625 262.226562 127.214844 C 263.910156 124.457031 264.878906 121.191406 265.238281 117.515625 L 256.5625 117.515625 C 256.308594 124.304688 255.234375 131.039062 253.347656 131.039062 C 251.460938 131.039062 250.386719 124.304688 250.132812 117.515625 L 241.507812 117.515625 C 241.609375 118.589844 241.761719 119.609375 241.96875 120.578125 C 242.734375 124.304688 244.058594 127.109375 246.050781 129.40625 Z M 246.050781 129.40625 " fill-opacity="1" fill-rule="nonzero"/></g><path fill="#a6a6a6" d="M 146.488281 82.40625 C 146.488281 83.378906 146.488281 84.347656 146.386719 85.316406 L 146.386719 85.570312 L 136.691406 85.570312 L 136.691406 85.316406 C 136.742188 84.296875 136.742188 83.273438 136.742188 82.253906 C 136.742188 72.609375 135.3125 65.875 133.984375 65.875 C 132.660156 65.875 131.230469 72.609375 131.230469 82.253906 C 131.230469 83.273438 131.230469 84.296875 131.28125 85.316406 L 131.28125 85.570312 L 121.636719 85.570312 L 121.636719 85.316406 C 121.382812 82.816406 121.484375 80.214844 121.839844 77.609375 C 122.453125 73.324219 123.882812 69.90625 126.230469 67.148438 C 128.066406 65.058594 130.515625 63.78125 133.269531 63.578125 C 135.976562 63.375 138.628906 64.292969 140.722656 66.078125 C 143.070312 68.117188 144.703125 70.925781 145.519531 74.394531 C 146.132812 77.101562 146.488281 79.753906 146.488281 82.40625 Z M 146.488281 82.40625 " fill-opacity="1" fill-rule="nonzero"/><path fill="#a6a6a6" d="M 105.152344 67.914062 C 105.050781 67.914062 104.949219 67.863281 104.847656 67.863281 C 103.519531 72.96875 102.195312 78.070312 100.867188 83.273438 L 109.132812 83.273438 C 107.808594 78.070312 106.480469 73.019531 105.152344 67.914062 Z M 105 68.375 L 108.828125 83.019531 L 101.222656 83.019531 Z M 105 68.375 " fill-opacity="1" fill-rule="nonzero"/><path fill="#a6a6a6" d="M 111.992188 63.425781 L 110.410156 63.425781 C 108.878906 63.425781 107.449219 63.425781 106.019531 63.476562 C 105.664062 63.476562 105.203125 63.882812 105.101562 64.242188 C 104.082031 67.964844 103.113281 71.792969 102.140625 75.46875 L 99.589844 85.316406 L 100.765625 85.316406 L 100.867188 84.601562 C 100.917969 84.246094 101.019531 84.144531 101.378906 84.144531 C 103.570312 84.144531 105.917969 84.144531 108.625 84.144531 C 109.03125 84.144531 109.183594 84.246094 109.285156 84.652344 L 109.441406 85.316406 L 117.757812 85.316406 Z M 100.867188 83.273438 C 102.195312 78.121094 103.519531 73.019531 104.847656 67.863281 C 104.949219 67.863281 105.050781 67.914062 105.152344 67.914062 C 106.480469 73.019531 107.808594 78.070312 109.132812 83.273438 Z M 100.867188 83.273438 " fill-opacity="1" fill-rule="nonzero"/><g clip-path="url(#2c0151a8e9)"><path fill="#a6a6a6" d="M 180.425781 23.210938 L 184.40625 21.78125 L 178.738281 43.625 L 183.078125 60.667969 L 179.199219 60.667969 L 175.933594 46.328125 L 173.230469 46.328125 L 169.859375 60.667969 L 165.929688 60.667969 L 170.269531 43.523438 L 164.808594 21.78125 L 168.890625 23.210938 L 173.125 41.074219 L 175.933594 41.074219 Z M 180.425781 23.210938 " fill-opacity="1" fill-rule="nonzero"/></g><path fill="#a6a6a6" d="M 166.136719 30.816406 L 166.695312 32.652344 L 134.191406 60.921875 L 131.636719 60.921875 Z M 166.136719 30.816406 " fill-opacity="1" fill-rule="nonzero"/><path fill="#a6a6a6" d="M 167.15625 35.40625 L 167.667969 37.347656 L 143.070312 60.921875 L 140.722656 60.921875 Z M 167.15625 35.40625 " fill-opacity="1" fill-rule="nonzero"/><path fill="#a6a6a6" d="M 168.433594 40 L 168.941406 41.839844 L 152.050781 60.921875 L 149.652344 60.921875 Z M 168.433594 40 " fill-opacity="1" fill-rule="nonzero"/><path fill="#a6a6a6" d="M 183.078125 30.816406 L 182.566406 32.652344 L 215.074219 60.921875 L 217.625 60.921875 Z M 183.078125 30.816406 " fill-opacity="1" fill-rule="nonzero"/><path fill="#a6a6a6" d="M 182.058594 35.5625 L 181.496094 37.550781 L 206.195312 60.921875 L 208.542969 60.921875 Z M 182.058594 35.5625 " fill-opacity="1" fill-rule="nonzero"/><path fill="#a6a6a6" d="M 180.832031 40 L 180.320312 41.839844 L 197.214844 60.921875 L 199.613281 60.921875 Z M 180.832031 40 " fill-opacity="1" fill-rule="nonzero"/><path fill="#a6a6a6" d="M 179.710938 23.46875 L 174.757812 28.007812 L 169.707031 23.3125 L 170.269531 25.660156 L 173.535156 28.875 L 171.339844 31.070312 L 171.800781 32.753906 L 174.707031 30.050781 L 177.363281 32.753906 L 177.769531 31.019531 L 175.882812 28.875 L 179.300781 25.609375 Z M 179.710938 23.46875 " fill-opacity="1" fill-rule="nonzero"/></svg>